G04*
G04 #@! TF.GenerationSoftware,Altium Limited,Altium Designer,20.0.10 (225)*
G04*
G04 Layer_Physical_Order=2*
G04 Layer_Color=16711680*
%FSLAX25Y25*%
%MOIN*%
G70*
G01*
G75*
%ADD13C,0.01575*%
%ADD37C,0.06102*%
%ADD38C,0.05906*%
%ADD39C,0.05512*%
%ADD40C,0.07677*%
G04:AMPARAMS|DCode=41|XSize=76.77mil|YSize=76.77mil|CornerRadius=19.19mil|HoleSize=0mil|Usage=FLASHONLY|Rotation=270.000|XOffset=0mil|YOffset=0mil|HoleType=Round|Shape=RoundedRectangle|*
%AMROUNDEDRECTD41*
21,1,0.07677,0.03839,0,0,270.0*
21,1,0.03839,0.07677,0,0,270.0*
1,1,0.03839,-0.01919,-0.01919*
1,1,0.03839,-0.01919,0.01919*
1,1,0.03839,0.01919,0.01919*
1,1,0.03839,0.01919,-0.01919*
%
%ADD41ROUNDEDRECTD41*%
%ADD42R,0.05315X0.05315*%
%ADD43C,0.05315*%
%ADD44R,0.05315X0.05315*%
%ADD45R,0.04724X0.04724*%
%ADD46C,0.04724*%
%ADD47C,0.08071*%
%ADD48C,0.07181*%
%ADD49R,0.07677X0.07677*%
%ADD50R,0.05906X0.05906*%
%ADD51R,0.05906X0.05906*%
G04:AMPARAMS|DCode=52|XSize=76.77mil|YSize=76.77mil|CornerRadius=19.19mil|HoleSize=0mil|Usage=FLASHONLY|Rotation=0.000|XOffset=0mil|YOffset=0mil|HoleType=Round|Shape=RoundedRectangle|*
%AMROUNDEDRECTD52*
21,1,0.07677,0.03839,0,0,0.0*
21,1,0.03839,0.07677,0,0,0.0*
1,1,0.03839,0.01919,-0.01919*
1,1,0.03839,-0.01919,-0.01919*
1,1,0.03839,-0.01919,0.01919*
1,1,0.03839,0.01919,0.01919*
%
%ADD52ROUNDEDRECTD52*%
G04:AMPARAMS|DCode=53|XSize=62.99mil|YSize=62.99mil|CornerRadius=15.75mil|HoleSize=0mil|Usage=FLASHONLY|Rotation=90.000|XOffset=0mil|YOffset=0mil|HoleType=Round|Shape=RoundedRectangle|*
%AMROUNDEDRECTD53*
21,1,0.06299,0.03150,0,0,90.0*
21,1,0.03150,0.06299,0,0,90.0*
1,1,0.03150,0.01575,0.01575*
1,1,0.03150,0.01575,-0.01575*
1,1,0.03150,-0.01575,-0.01575*
1,1,0.03150,-0.01575,0.01575*
%
%ADD53ROUNDEDRECTD53*%
%ADD54C,0.06299*%
%ADD55R,0.06299X0.06299*%
%ADD56C,0.05000*%
D13*
X404000Y399701D02*
X405201D01*
X407000Y401500D01*
X408799Y399701D01*
X407000Y401500D02*
Y409500D01*
Y399701D02*
X408799D01*
X430701D01*
X407000Y400000D02*
Y401500D01*
X430701Y399701D02*
X449500Y418500D01*
X387331Y399701D02*
X404000D01*
X407000D01*
X402500Y472500D02*
X402668Y472668D01*
X406000D01*
Y476000D01*
Y472668D02*
X406084Y472584D01*
X404334Y474334D02*
X411168Y467500D01*
X412500D01*
X405000Y444500D02*
X408000D01*
X405000D02*
X406500Y446000D01*
X399256Y438756D02*
X405000Y444500D01*
X408500Y444000D02*
X413000Y439500D01*
X406500Y446000D02*
X408500Y444000D01*
X406500Y446000D02*
X408000Y447500D01*
Y444500D02*
Y447500D01*
X465000Y504500D01*
X406597Y336500D02*
X409500D01*
Y333000D02*
Y336500D01*
X407750Y334750D02*
X414500Y341500D01*
X411000Y366000D02*
X413500Y368500D01*
X416000Y366000D02*
X416500D01*
X413500Y368500D02*
X416000Y366000D01*
X413500D02*
Y376500D01*
X423000Y505500D02*
Y509000D01*
X426500D01*
X418500Y513500D02*
X424500Y507500D01*
X415311Y497811D02*
X449500Y532000D01*
X387331Y497811D02*
X415311D01*
X449500Y532000D02*
Y556500D01*
X403500Y558000D02*
X406000Y555500D01*
X403500Y558000D02*
X404152Y558652D01*
X406000Y560500D01*
X391500Y558000D02*
X406000D01*
X391000Y558500D02*
X391500Y558000D01*
X287500Y143000D02*
X288000Y142500D01*
X441000Y188500D02*
X450000Y179500D01*
X490500D02*
X500000Y189000D01*
X450000Y179500D02*
X490500D01*
X259500Y237500D02*
X261348D01*
X262000D02*
X392000Y237500D01*
X259500Y240000D02*
Y250000D01*
Y186878D02*
Y235000D01*
X472000Y188500D02*
X472500Y189000D01*
X261348Y237500D02*
X262000D01*
X259500D02*
Y240000D01*
Y235000D02*
Y237500D01*
X392000Y237500D02*
X441000Y188500D01*
X1380000Y266000D02*
Y300500D01*
X1373000Y492000D02*
Y526000D01*
X1182000Y264000D02*
X1211000D01*
X1176000Y489500D02*
X1210000D01*
X613500Y569500D02*
X1149000D01*
X1233500Y485000D01*
X1253000D01*
X987000Y263500D02*
X1011500D01*
X980500Y489000D02*
X1010000D01*
X929000Y544500D02*
X968500D01*
X1030000Y483000D02*
X1055000D01*
X968500Y544500D02*
X1030000Y483000D01*
X792000Y264000D02*
X820000D01*
X786000Y489000D02*
X820000D01*
X599500Y263500D02*
X628500D01*
X653500Y257500D02*
X672000D01*
X515682Y318500D02*
X592500D01*
X653500Y257500D01*
X592500Y489000D02*
X626500D01*
X1056000Y189000D02*
X1082500D01*
X1037500Y207500D02*
X1056000Y189000D01*
X1037500Y207500D02*
Y272000D01*
X1255500Y191000D02*
X1280500D01*
X1238000Y208500D02*
Y272107D01*
Y208500D02*
X1255500Y191000D01*
X841000Y271000D02*
X842000D01*
X850500Y262500D01*
Y201000D02*
Y262500D01*
Y201000D02*
X853000Y198500D01*
X862500Y189000D01*
X887500D01*
X259500Y235000D02*
X262000Y237500D01*
X261348Y238152D02*
X262000Y237500D01*
X259500Y240000D02*
X261348Y238152D01*
X259500Y186878D02*
X287402Y158976D01*
Y218976D02*
X314961D01*
Y158500D02*
X342043D01*
X342520Y158976D01*
X341676Y219000D02*
X370055D01*
X370079Y218976D01*
Y158976D02*
X393055Y136000D01*
X378500Y506000D02*
X379000Y506500D01*
X380000Y507500D01*
X378500Y509000D02*
X380000Y507500D01*
X378500D02*
X387020D01*
X387331Y507811D01*
X378500Y447000D02*
X380000Y448500D01*
X378500Y450000D02*
Y450500D01*
Y450000D02*
X380000Y448500D01*
X378500D02*
X387075D01*
X387331Y448756D01*
X378500Y388000D02*
X380000Y389500D01*
X378500Y391000D02*
Y391500D01*
Y391000D02*
X380000Y389500D01*
X378500D02*
X387130D01*
X387331Y389701D01*
X378500Y329000D02*
X380000Y330500D01*
X378500Y332000D02*
Y332500D01*
Y332000D02*
X380000Y330500D01*
X378500D02*
X387185D01*
X387331Y330646D01*
X378500Y275000D02*
Y572500D01*
X381909Y271590D02*
X387331D01*
X378500Y275000D02*
X381909Y271590D01*
X340764Y610236D02*
X378500Y572500D01*
X278740Y610236D02*
X340764D01*
X366000Y506000D02*
Y506500D01*
X364500Y508000D02*
X366000Y506500D01*
X366000Y509500D02*
Y510000D01*
X364500Y508000D02*
X366000Y509500D01*
X357520Y508000D02*
X366000D01*
X357331Y507811D02*
X357520Y508000D01*
X366000Y447000D02*
Y447256D01*
X364500Y448756D02*
X366000Y447256D01*
Y450256D02*
Y450500D01*
X364500Y448756D02*
X366000Y450256D01*
X366000Y449000D02*
X366000Y563000D01*
X366000Y390000D02*
Y391500D01*
X357331Y448756D02*
X366000D01*
X364500Y390000D02*
X366000D01*
X364500Y330500D02*
X366000D01*
X366000Y332000D02*
Y388500D01*
Y275500D02*
Y329000D01*
X357630Y390000D02*
X364500D01*
X366000Y391500D02*
X366000Y449000D01*
X357476Y330500D02*
X364500D01*
X366000Y388500D02*
Y390000D01*
Y330500D02*
Y332000D01*
Y329000D02*
Y330500D01*
X364500Y390000D02*
X366000Y388500D01*
X364500Y390000D02*
X366000Y391500D01*
X357331Y389701D02*
X357630Y390000D01*
X366000Y328500D02*
Y329000D01*
X364500Y330500D02*
X366000Y329000D01*
X364500Y330500D02*
X366000Y332000D01*
X357331Y271590D02*
X362090D01*
X366000Y275500D01*
X357331Y330646D02*
X357476Y330500D01*
X358043Y320646D02*
X358398Y321000D01*
X357331Y320646D02*
X358043D01*
X358134Y570866D02*
X366000Y563000D01*
X278740Y570866D02*
X358134D01*
X406000Y534500D02*
Y573500D01*
X425000Y592500D02*
X590500D01*
X406000Y573500D02*
X425000Y592500D01*
X452000Y366000D02*
X466500Y351500D01*
X401031Y366000D02*
X452000D01*
X466500Y270000D02*
Y351500D01*
X259500Y250000D02*
Y645000D01*
X1131032Y138469D02*
Y150591D01*
X1327882Y148650D02*
Y150591D01*
X934181Y138500D02*
Y150591D01*
X638905Y138500D02*
Y150591D01*
X1229447Y138447D02*
Y150591D01*
X442055Y138000D02*
Y150591D01*
X1032606Y138394D02*
Y150591D01*
X540480Y138500D02*
Y150591D01*
X737331Y138169D02*
Y150591D01*
X835756Y138244D02*
Y150591D01*
X1358000Y159842D02*
X1367252Y150591D01*
X1269417Y150000D02*
X1291000D01*
X1299000Y158000D02*
Y265000D01*
X1291000Y150000D02*
X1299000Y158000D01*
X1282000Y282000D02*
X1299000Y265000D01*
X1268827Y150591D02*
X1269417Y150000D01*
X1163000Y157992D02*
X1170401Y150591D01*
X1071976Y150500D02*
X1091000D01*
X1098500Y158000D02*
Y265500D01*
X1091000Y150500D02*
X1098500Y158000D01*
X962000Y162142D02*
X973551Y150591D01*
X875126Y150000D02*
X895000D01*
X902000Y157000D02*
Y265000D01*
X895000Y150000D02*
X902000Y157000D01*
X762000Y165291D02*
X776701Y150591D01*
X678275Y150000D02*
X700000D01*
X709500Y159500D02*
Y230232D01*
X700000Y150000D02*
X709500Y159500D01*
X625625Y136041D02*
X628959D01*
X624760D02*
X625625D01*
X628959D02*
X629000Y136000D01*
X624739Y136020D02*
X624760Y136041D01*
X624319Y136020D02*
X624739D01*
X623520D02*
X624319D01*
X629000Y136000D02*
X636406D01*
X482283Y150591D02*
X508591D01*
X522000Y164000D01*
Y261500D01*
X568500Y163000D02*
Y259500D01*
Y163000D02*
X579850Y151650D01*
Y150591D02*
Y151650D01*
X442055Y136000D02*
Y138000D01*
X393055Y136000D02*
X411500D01*
X540480Y136020D02*
X542980D01*
X411500Y136000D02*
X414000D01*
X440055D02*
X442055D01*
X259500Y645000D02*
X279500Y665000D01*
X537980Y136020D02*
X540480D01*
X416500Y136000D02*
X440055D01*
X527831Y136020D02*
X537980D01*
X540480Y136020D02*
Y138500D01*
X442055Y136000D02*
X444055D01*
X414000D02*
X416500D01*
X444055D02*
X527831D01*
X542980Y136020D02*
X606500D01*
X440055Y136000D02*
X442055Y138000D01*
X444055Y136000D01*
X537500D02*
X537980D01*
X540480Y138500D01*
X542980Y136000D02*
X543000D01*
X540480Y138500D02*
X542980Y136000D01*
X616000Y136020D02*
X618086D01*
X608019D02*
X614000D01*
X540480D02*
X540480Y136020D01*
X618086Y136020D02*
X620172D01*
X614000D02*
X616000D01*
X623224D02*
X623520D01*
X620172D02*
X623224D01*
X606500D02*
X608019D01*
X638905Y136000D02*
X641405D01*
X638905D02*
Y138500D01*
X636406Y136000D02*
X638905D01*
X641405D02*
X735000D01*
X636000Y136000D02*
X636406D01*
X638905Y138500D01*
X641405Y136000D02*
X641500D01*
X638905Y138500D02*
X641405Y136000D01*
X735000Y136000D02*
X737331D01*
Y138169D01*
X739500Y136000D02*
X804500D01*
X737331D02*
X739500D01*
X735000Y136000D02*
X735161D01*
X737331Y138169D01*
X739500Y136000D01*
X806000Y136000D02*
X808500D01*
X811000D01*
X823106Y136000D02*
X824500D01*
X811000Y136000D02*
X819500D01*
X822000D01*
X824500Y136000D02*
X833512D01*
X804500D02*
X806000D01*
X811000D02*
X811500D01*
X819000D02*
X819500D01*
X822000Y136000D02*
X823106D01*
X835756Y136000D02*
X838000D01*
X835756Y136000D02*
Y138244D01*
X838000Y136000D02*
X931681D01*
X833512D02*
X835756D01*
X833512D02*
X835756Y138244D01*
X838000Y136000D01*
X934181Y136000D02*
Y138500D01*
Y136000D02*
X936500D01*
X835756D02*
X835756Y136000D01*
X936500Y136000D02*
X1003500D01*
X931681D02*
X934181D01*
X931681D02*
X934181Y138500D01*
X936500Y136000D02*
Y136181D01*
X934181Y138500D02*
X936500Y136181D01*
X1017000Y136000D02*
X1019957D01*
X1022000Y136000D02*
X1030000D01*
X1008000Y136000D02*
X1017000D01*
X934181D02*
X934181Y136000D01*
X1006000Y136000D02*
X1008000D01*
X1003500D02*
X1006000D01*
X1019957Y136000D02*
X1022000D01*
X1032606D02*
X1035000D01*
X1032606D02*
Y138394D01*
X1030000Y136000D02*
X1032606D01*
X1035000D02*
X1118382D01*
X1030000Y136000D02*
X1030213D01*
X1032606Y138394D01*
X1035000Y136000D01*
X1131032Y135994D02*
X1133500D01*
X1199000D01*
X1131032Y135994D02*
Y138469D01*
X1118382Y135994D02*
X1128563D01*
X1131032D01*
X1128000Y136000D02*
X1128563D01*
X1131032Y138469D01*
X1133500Y136000D01*
X1214500Y135994D02*
X1217000D01*
X1212000D02*
X1214500D01*
X1204000D02*
X1212000D01*
X1199000D02*
X1201500D01*
X1204000D01*
X1131032D02*
X1131032Y135994D01*
X1217000Y135994D02*
X1227000D01*
X537000Y291000D02*
X568500Y259500D01*
X762000Y165291D02*
Y261500D01*
X732979Y290521D02*
X762000Y261500D01*
X925500Y291000D02*
X962000Y254500D01*
Y162142D02*
Y254500D01*
X1317500Y293500D02*
X1358000Y253000D01*
Y159842D02*
Y253000D01*
X1119500Y291500D02*
X1163000Y248000D01*
Y157992D02*
Y248000D01*
X1217000Y136000D02*
X1217500D01*
X1227000Y135994D02*
X1229228D01*
X1229447Y135775D02*
Y138447D01*
X1229447Y135994D02*
X1231947D01*
X1315226D01*
X1227000Y136000D02*
X1229447Y138447D01*
Y138500D01*
X1231947Y136000D02*
X1232500D01*
X1229447Y138500D02*
X1231947Y136000D01*
X1229228Y135994D02*
X1229447Y135775D01*
X1229447D01*
X1315226Y135994D02*
X1327882Y148650D01*
X1229447Y135994D02*
X1229447Y135994D01*
X539094Y529000D02*
X565095Y503000D01*
X645000D02*
X665000Y483000D01*
X565095Y503000D02*
X645000D01*
X343717Y496500D02*
X354848D01*
X356159Y497811D01*
X357331D01*
X274500Y478717D02*
X291783Y496000D01*
X307784D02*
X308283Y496500D01*
X291783Y496000D02*
X307784D01*
X515682Y318500D02*
X515682Y318500D01*
X401854Y340646D02*
X424500Y318000D01*
X451350D01*
X504000Y279500D02*
X522000Y261500D01*
X1118382Y136000D02*
X1118382Y136000D01*
X823106Y136000D02*
X823106Y136000D01*
X279500Y665000D02*
Y678315D01*
X278728D02*
X279000Y678043D01*
X387331Y517811D02*
X388159Y518640D01*
X390140D02*
X406000Y534500D01*
X388159Y518640D02*
X390140D01*
X449500Y556500D02*
X462000Y569000D01*
X486000D01*
X582000D01*
X390227Y460227D02*
X472500Y542500D01*
X560000D02*
X580000Y522500D01*
X472500Y542500D02*
X560000D01*
X387331Y458756D02*
X388503D01*
X389973Y460227D01*
X390227D01*
X465000Y504500D02*
X480000D01*
X504500Y529000D02*
X539094D01*
X480000Y504500D02*
X504500Y529000D01*
X387331Y438756D02*
X399256D01*
X387331Y379701D02*
X401031Y366000D01*
X387331Y340646D02*
X401854D01*
X293957Y401548D02*
X309500Y386005D01*
X291534Y402000D02*
X291986Y401548D01*
X293957D01*
X278967Y382032D02*
X282468D01*
X344216Y517500D02*
X357331D01*
X343717Y517000D02*
X344216Y517500D01*
X337500Y350500D02*
X348000Y340000D01*
X357331D01*
X337500Y350500D02*
Y350500D01*
X309500Y386005D02*
X337000D01*
X293284Y517000D02*
X308283D01*
X274500Y386500D02*
Y478717D01*
X268000Y385762D02*
Y491716D01*
X293284Y517000D01*
X1293000Y306500D02*
Y493000D01*
X1282000Y282000D02*
Y295500D01*
X1293000Y306500D01*
X704000Y486500D02*
X722500Y505000D01*
X704000Y389757D02*
Y486500D01*
X902500Y307000D02*
Y489500D01*
X917500Y504500D01*
X888500Y293000D02*
X902500Y307000D01*
X1081500Y291500D02*
X1096000Y306000D01*
Y490500D02*
X1112500Y507000D01*
X1096000Y306000D02*
Y490500D01*
X1293000Y493000D02*
X1310500Y510500D01*
X1081500Y282500D02*
X1098500Y265500D01*
X1081500Y282500D02*
Y291500D01*
X504000Y279500D02*
Y343500D01*
X513000Y352500D02*
Y487500D01*
X504000Y343500D02*
X513000Y352500D01*
X888500Y278500D02*
X902000Y265000D01*
X1310500Y510500D02*
Y519000D01*
X1112500Y507000D02*
Y517000D01*
X530000Y504500D02*
Y516500D01*
X513000Y487500D02*
X530000Y504500D01*
X722500Y505000D02*
Y517000D01*
X917500Y504500D02*
Y516500D01*
X888500Y278500D02*
Y293000D01*
X696500Y273488D02*
Y294500D01*
X704000Y302000D01*
Y329872D01*
X696500Y273488D02*
X709500Y260488D01*
Y230232D02*
Y260488D01*
X704000Y329872D02*
Y348500D01*
Y389757D01*
X1344000Y373000D02*
Y611000D01*
X466500Y270000D02*
X479500Y257000D01*
X268000Y378500D02*
X274500Y372000D01*
X268000Y378500D02*
Y385762D01*
X274500Y372000D02*
X281534D01*
X274500Y386500D02*
X278967Y382032D01*
X582000Y569000D02*
X605000Y546000D01*
X449500Y418500D02*
Y459500D01*
X472500Y482500D01*
X590500Y592500D02*
X613500Y569500D01*
X605000Y546000D02*
X606500Y544500D01*
X929000D01*
X818854Y481500D02*
X859000D01*
X860000Y482500D01*
X730470Y531500D02*
X780470Y481500D01*
X818854D01*
X691000Y522500D02*
X700000Y531500D01*
X730470D01*
X580000Y522500D02*
X691000D01*
X924500Y291000D02*
X925500D01*
X729500Y291500D02*
X730479Y290521D01*
X732979D01*
X525986Y291486D02*
Y291486D01*
X525500Y291000D02*
X525986Y291486D01*
X525500Y291000D02*
X525986Y290514D01*
Y288552D02*
Y290514D01*
D37*
X395500Y246000D02*
D03*
X406500Y284000D02*
D03*
X412500Y316000D02*
D03*
X414500Y341500D02*
D03*
X413500Y376500D02*
D03*
X407000Y409500D02*
D03*
X413000Y439500D02*
D03*
X412500Y467500D02*
D03*
X418500Y513500D02*
D03*
X391000Y558500D02*
D03*
X283500Y470000D02*
D03*
X287500Y143000D02*
D03*
X472500Y189000D02*
D03*
X647500D02*
D03*
X841500D02*
D03*
X1037000D02*
D03*
X1235000Y191000D02*
D03*
X1312500Y397000D02*
D03*
X1114500Y395000D02*
D03*
X919500Y395500D02*
D03*
X724500Y393500D02*
D03*
X532000Y395500D02*
D03*
D38*
X1090500Y654500D02*
D03*
X1052500Y668500D02*
D03*
X342500Y144500D02*
D03*
X1380000Y300500D02*
D03*
X1373000Y526000D02*
D03*
X1211000Y264000D02*
D03*
X1210000Y489500D02*
D03*
X1011500Y263500D02*
D03*
X1010000Y489000D02*
D03*
X820000Y264000D02*
D03*
Y489000D02*
D03*
X628500Y263500D02*
D03*
X626500Y489000D02*
D03*
X291534Y392000D02*
D03*
X281534D02*
D03*
X291534Y402000D02*
D03*
X281534D02*
D03*
X291534Y412000D02*
D03*
X281534Y382000D02*
D03*
Y372000D02*
D03*
X291534Y382000D02*
D03*
Y372000D02*
D03*
X357331Y281591D02*
D03*
Y271590D02*
D03*
Y261591D02*
D03*
X387331Y291590D02*
D03*
Y281591D02*
D03*
Y271590D02*
D03*
Y261591D02*
D03*
X357331Y340646D02*
D03*
Y330646D02*
D03*
Y320646D02*
D03*
X387331Y350646D02*
D03*
Y340646D02*
D03*
Y330646D02*
D03*
Y320646D02*
D03*
X357331Y458756D02*
D03*
Y448756D02*
D03*
Y438756D02*
D03*
X387331Y468756D02*
D03*
Y458756D02*
D03*
Y448756D02*
D03*
Y438756D02*
D03*
X357331Y399701D02*
D03*
Y389701D02*
D03*
Y379701D02*
D03*
X387331Y409701D02*
D03*
Y399701D02*
D03*
Y389701D02*
D03*
Y379701D02*
D03*
X357331Y517811D02*
D03*
Y507811D02*
D03*
Y497811D02*
D03*
X387331Y527811D02*
D03*
Y517811D02*
D03*
Y507811D02*
D03*
Y497811D02*
D03*
D39*
X287402Y158976D02*
D03*
Y218976D02*
D03*
X314961Y158976D02*
D03*
Y218976D02*
D03*
X342520Y158976D02*
D03*
Y218976D02*
D03*
X370079Y158976D02*
D03*
Y218976D02*
D03*
X440500Y227500D02*
D03*
X500500D02*
D03*
X440000Y204000D02*
D03*
X500000D02*
D03*
X494500Y304000D02*
D03*
X434500D02*
D03*
X494500Y331500D02*
D03*
X434500D02*
D03*
X494500Y355500D02*
D03*
X434500D02*
D03*
X495000Y379000D02*
D03*
X435000D02*
D03*
X599000Y240000D02*
D03*
X539000D02*
D03*
X599000Y216000D02*
D03*
X539000D02*
D03*
X599000Y188500D02*
D03*
X539000D02*
D03*
X731500Y189000D02*
D03*
X791500D02*
D03*
X731500Y216500D02*
D03*
X791500D02*
D03*
X731500Y240500D02*
D03*
X791500D02*
D03*
X732000Y264000D02*
D03*
X792000D02*
D03*
X630500Y379500D02*
D03*
X690500D02*
D03*
X630000Y356000D02*
D03*
X690000D02*
D03*
X630000Y332000D02*
D03*
X690000D02*
D03*
X630000Y304500D02*
D03*
X690000D02*
D03*
X692500Y204500D02*
D03*
X632500D02*
D03*
X693000Y228000D02*
D03*
X633000D02*
D03*
X1083000D02*
D03*
X1023000D02*
D03*
X1082500Y204500D02*
D03*
X1022500D02*
D03*
X1017000Y304500D02*
D03*
X1077000D02*
D03*
X1017000Y332000D02*
D03*
X1077000D02*
D03*
X1017000Y356000D02*
D03*
X1077000D02*
D03*
X1017500Y379500D02*
D03*
X1077500D02*
D03*
X1122000Y264000D02*
D03*
X1182000D02*
D03*
X1121500Y240500D02*
D03*
X1181500D02*
D03*
X1121500Y216500D02*
D03*
X1181500D02*
D03*
X1121500Y189000D02*
D03*
X1181500D02*
D03*
X926500Y188500D02*
D03*
X986500D02*
D03*
X926500Y216000D02*
D03*
X986500D02*
D03*
X926500Y240000D02*
D03*
X986500D02*
D03*
X927000Y263500D02*
D03*
X987000D02*
D03*
X822500Y379000D02*
D03*
X882500D02*
D03*
X822000Y355500D02*
D03*
X882000D02*
D03*
X822000Y331500D02*
D03*
X882000D02*
D03*
X822000Y304000D02*
D03*
X882000D02*
D03*
X887500Y204000D02*
D03*
X827500D02*
D03*
X888000Y227500D02*
D03*
X828000D02*
D03*
X539500Y263500D02*
D03*
X599500D02*
D03*
X1379500Y191000D02*
D03*
X1319500D02*
D03*
X1379500Y218500D02*
D03*
X1319500D02*
D03*
X1379500Y242500D02*
D03*
X1319500D02*
D03*
X1380000Y266000D02*
D03*
X1320000D02*
D03*
X1275500Y381500D02*
D03*
X1215500D02*
D03*
X1275000Y358000D02*
D03*
X1215000D02*
D03*
X1275000Y334000D02*
D03*
X1215000D02*
D03*
X1275000Y306500D02*
D03*
X1215000D02*
D03*
X1220500Y206500D02*
D03*
X1280500D02*
D03*
X1221000Y230000D02*
D03*
X1281000D02*
D03*
X1274000Y455500D02*
D03*
X1214000D02*
D03*
X1273500Y432000D02*
D03*
X1213500D02*
D03*
X1208000Y532000D02*
D03*
X1268000D02*
D03*
X1208000Y559500D02*
D03*
X1268000D02*
D03*
X1208000Y583500D02*
D03*
X1268000D02*
D03*
X1208500Y607000D02*
D03*
X1268500D02*
D03*
X1313000Y491500D02*
D03*
X1373000D02*
D03*
X1312500Y468000D02*
D03*
X1372500D02*
D03*
X1312500Y444000D02*
D03*
X1372500D02*
D03*
X1312500Y416500D02*
D03*
X1372500D02*
D03*
X592500Y489000D02*
D03*
X532500D02*
D03*
X821000Y453000D02*
D03*
X881000D02*
D03*
X820500Y429500D02*
D03*
X880500D02*
D03*
X875000Y529500D02*
D03*
X815000D02*
D03*
X875000Y557000D02*
D03*
X815000D02*
D03*
X875000Y581000D02*
D03*
X815000D02*
D03*
X875500Y604500D02*
D03*
X815500D02*
D03*
X980000Y489000D02*
D03*
X920000D02*
D03*
X979500Y465500D02*
D03*
X919500D02*
D03*
X979500Y441500D02*
D03*
X919500D02*
D03*
X979500Y414000D02*
D03*
X919500D02*
D03*
X1174500Y414500D02*
D03*
X1114500D02*
D03*
X1174500Y442000D02*
D03*
X1114500D02*
D03*
X1174500Y466000D02*
D03*
X1114500D02*
D03*
X1175000Y489500D02*
D03*
X1115000D02*
D03*
X1070500Y605000D02*
D03*
X1010500D02*
D03*
X1070000Y581500D02*
D03*
X1010000D02*
D03*
X1070000Y557500D02*
D03*
X1010000D02*
D03*
X1070000Y530000D02*
D03*
X1010000D02*
D03*
X1015500Y430000D02*
D03*
X1075500D02*
D03*
X1016000Y453500D02*
D03*
X1076000D02*
D03*
X626000D02*
D03*
X686000D02*
D03*
X625500Y430000D02*
D03*
X685500D02*
D03*
X683000Y530000D02*
D03*
X623000D02*
D03*
X683000Y557500D02*
D03*
X623000D02*
D03*
X683000Y581500D02*
D03*
X623000D02*
D03*
X683500Y605000D02*
D03*
X623500D02*
D03*
X785000Y489500D02*
D03*
X725000D02*
D03*
X784500Y466000D02*
D03*
X724500D02*
D03*
X784500Y442000D02*
D03*
X724500D02*
D03*
X784500Y414500D02*
D03*
X724500D02*
D03*
X532000Y414000D02*
D03*
X592000D02*
D03*
X532000Y441500D02*
D03*
X592000D02*
D03*
X532000Y465500D02*
D03*
X592000D02*
D03*
X428000Y604500D02*
D03*
X488000D02*
D03*
X427500Y581000D02*
D03*
X487500D02*
D03*
X427500Y557000D02*
D03*
X487500D02*
D03*
X427500Y529500D02*
D03*
X487500D02*
D03*
X493000Y429500D02*
D03*
X433000D02*
D03*
X493500Y453000D02*
D03*
X433500D02*
D03*
D40*
X278740Y590551D02*
D03*
Y570866D02*
D03*
X278728Y698000D02*
D03*
Y678315D02*
D03*
X953866Y150591D02*
D03*
X973551D02*
D03*
X1052291D02*
D03*
X1071976D02*
D03*
X1150716D02*
D03*
X1170401D02*
D03*
X1249142D02*
D03*
X1268827D02*
D03*
X1347567D02*
D03*
X1367252D02*
D03*
X875126D02*
D03*
X855441D02*
D03*
X776701D02*
D03*
X757016D02*
D03*
X678275D02*
D03*
X658591D02*
D03*
X579850D02*
D03*
X560165D02*
D03*
X482283D02*
D03*
X462598D02*
D03*
D41*
X278740Y610236D02*
D03*
D42*
X291000Y297716D02*
D03*
X304000Y333717D02*
D03*
X317000Y375217D02*
D03*
X337000Y386216D02*
D03*
D43*
X291000Y262283D02*
D03*
X304000Y298284D02*
D03*
X317000Y339784D02*
D03*
X337000Y350783D02*
D03*
X345216Y399000D02*
D03*
X344717Y419500D02*
D03*
X344500Y439500D02*
D03*
X344216Y460000D02*
D03*
X343717Y496500D02*
D03*
Y518000D02*
D03*
D44*
X309784Y399000D02*
D03*
X309283Y419500D02*
D03*
X309067Y439500D02*
D03*
X308784Y460000D02*
D03*
X308283Y496500D02*
D03*
Y518000D02*
D03*
D45*
X964067Y667476D02*
D03*
X865642Y706847D02*
D03*
X767216Y667476D02*
D03*
X668791Y706847D02*
D03*
X570366Y667476D02*
D03*
X471941Y706847D02*
D03*
X373516Y667476D02*
D03*
D46*
X983752D02*
D03*
X885327Y706847D02*
D03*
X786902Y667476D02*
D03*
X688476Y706847D02*
D03*
X590051Y667476D02*
D03*
X491626Y706847D02*
D03*
X393201Y667476D02*
D03*
D47*
X1023122Y668480D02*
D03*
Y721591D02*
D03*
X924697Y668480D02*
D03*
Y721591D02*
D03*
X530996Y668480D02*
D03*
Y721591D02*
D03*
X629421Y668480D02*
D03*
Y721591D02*
D03*
X826272Y668480D02*
D03*
Y721591D02*
D03*
X727846Y668480D02*
D03*
Y721591D02*
D03*
X432571Y668480D02*
D03*
Y721591D02*
D03*
X334146Y668480D02*
D03*
Y721591D02*
D03*
D48*
X550500Y801000D02*
D03*
X278000D02*
D03*
D49*
X278728Y717685D02*
D03*
D50*
X281534Y412000D02*
D03*
D51*
X357331Y291590D02*
D03*
Y350646D02*
D03*
Y468756D02*
D03*
Y409701D02*
D03*
Y527811D02*
D03*
D52*
X934181Y150591D02*
D03*
X1032606D02*
D03*
X1131032D02*
D03*
X1229457D02*
D03*
X1327882D02*
D03*
X835756D02*
D03*
X737331D02*
D03*
X638905D02*
D03*
X540480D02*
D03*
X442913D02*
D03*
D53*
X479500Y257000D02*
D03*
X517000Y291000D02*
D03*
X709500Y291500D02*
D03*
X672000Y257500D02*
D03*
X1062000D02*
D03*
X1099500Y291500D02*
D03*
X904500Y291000D02*
D03*
X867000Y257000D02*
D03*
X1297500Y293500D02*
D03*
X1260000Y259500D02*
D03*
X1253000Y485000D02*
D03*
X860000Y482500D02*
D03*
X897500Y516500D02*
D03*
X1092500Y517000D02*
D03*
X1055000Y483000D02*
D03*
X665000D02*
D03*
X702500Y517000D02*
D03*
X510000Y516500D02*
D03*
X472500Y482500D02*
D03*
D54*
X489500Y257000D02*
D03*
X499500D02*
D03*
X527000Y291000D02*
D03*
X537000D02*
D03*
X729500Y291500D02*
D03*
X719500D02*
D03*
X692000Y257500D02*
D03*
X682000D02*
D03*
X1082000D02*
D03*
X1072000D02*
D03*
X1119500Y291500D02*
D03*
X1109500D02*
D03*
X924500Y291000D02*
D03*
X914500D02*
D03*
X887000Y257000D02*
D03*
X877000D02*
D03*
X1307500Y293500D02*
D03*
X1317500D02*
D03*
X1270000Y259500D02*
D03*
X1280000D02*
D03*
X1273000Y485000D02*
D03*
X1263000D02*
D03*
X1310500Y519000D02*
D03*
X1300500D02*
D03*
X870000Y482500D02*
D03*
X880000D02*
D03*
X907500Y516500D02*
D03*
X917500D02*
D03*
X1102500Y517000D02*
D03*
X1112500D02*
D03*
X1065000Y483000D02*
D03*
X1075000D02*
D03*
X675000D02*
D03*
X685000D02*
D03*
X712500Y517000D02*
D03*
X722500D02*
D03*
X530000Y516500D02*
D03*
X520000D02*
D03*
X492500Y482500D02*
D03*
X482500D02*
D03*
D55*
X1290500Y519000D02*
D03*
D56*
X1238160Y272107D02*
D03*
X1037500Y272000D02*
D03*
X841000Y271000D02*
D03*
X1273500Y416500D02*
D03*
X1075500Y414500D02*
D03*
X880500Y414000D02*
D03*
X515000Y318500D02*
D03*
X450500Y318000D02*
D03*
X1280500Y191000D02*
D03*
X1082500Y189000D02*
D03*
X887500D02*
D03*
X692500D02*
D03*
X500000D02*
D03*
X1344000Y611000D02*
D03*
Y373000D02*
D03*
M02*
