M48
;Layer_Color=9474304
;FILE_FORMAT=2:5
INCH,LZ
;TYPE=PLATED
T1F00S00C0.02800
T2F00S00C0.03150
T3F00S00C0.03346
T4F00S00C0.03543
T5F00S00C0.03937
T6F00S00C0.04000
T7F00S00C0.04016
T8F00S00C0.05118
T9F00S00C0.05906
T10F00S00C0.06102
%
T01
X12805Y0191
X123816Y0272107
X10375Y0272
X10825Y0189
X08875
X0841Y0271
X06925Y0189
X05
X04505Y0318
X0515Y03185
X08805Y0414
X10755Y04145
X12735Y04165
X1344Y0373
Y0611
T02
X0373516Y0667476
X0393201
X0471941Y0706847
X0491626
X0570366Y0667476
X0590051
X0668791Y0706847
X0688476
X0767216Y0667476
X0786902
X0865642Y0706847
X0885327
X0964067Y0667476
X0983752
T03
X12805Y02065
X1281Y023
X13195Y02185
Y02425
X132Y0266
X138
X13795Y02425
Y02185
Y0191
X13195
X1275Y03065
X1215
X1182Y0264
X11815Y02405
Y02165
Y0189
X12205Y02065
X1221Y023
X11215Y02405
X1122Y0264
X11215Y02165
Y0189
X10825Y02045
X1083Y0228
X1023
X10225Y02045
X09865Y0216
Y024
X0987Y02635
X1017Y03045
X1077
X09865Y01885
X09265
Y0216
Y024
X0927Y02635
X0888Y02275
X08875Y0204
X08275
X0828Y02275
X07915Y02165
Y02405
X0792Y0264
X0822Y0304
X0882
X07915Y0189
X07315
Y02165
Y02405
X0732Y0264
X0693Y0228
X06925Y02045
X06325
X0633Y0228
X063Y03045
X069
X05995Y02635
X0599Y024
Y0216
Y01885
X0539
Y0216
Y024
X05395Y02635
X05005Y02275
X05Y0204
X04945Y0304
X04345
X04405Y02275
X044Y0204
X0370079Y0218976
X034252
X0314961
Y0158976
X034252
X0370079
X0287402
Y0218976
X0291Y0262283
Y0297716
X0304Y0298284
Y0333717
X0309784Y0399
X0309283Y04195
X0309067Y04395
X0308784Y046
X0344216
X03445Y04395
X0344717Y04195
X0345216Y0399
X0337Y0386216
X0317Y0375217
Y0339784
X0337Y0350783
X04345Y03555
Y03315
X0435Y0379
X0433Y04295
X04335Y0453
X04935
X0493Y04295
X0532Y04415
Y04655
Y0414
X0592
Y04415
Y04655
X0495Y0379
X04945Y03555
Y03315
X063Y0332
Y0356
X06305Y03795
X06255Y043
X0626Y04535
X0686
X06855Y043
X07245Y0442
Y0466
Y04145
X06905Y03795
X069Y0356
Y0332
X0822Y03315
Y03555
X08225Y0379
X08205Y04295
X0821Y0453
X07845Y0442
Y0466
Y04145
X08805Y04295
X0881Y0453
X09195Y04415
Y04655
Y0414
X08825Y0379
X0882Y03555
Y03315
X1017Y0332
Y0356
X10175Y03795
X10155Y043
X1016Y04535
X09795Y04655
Y04415
Y0414
X10755Y043
X1076Y04535
X10775Y03795
X1077Y0356
Y0332
X11145Y04145
Y0442
Y0466
X11745
Y0442
Y04145
X12135Y0432
X1214Y04555
X12155Y03815
X1215Y0358
Y0334
X1275
Y0358
X12755Y03815
X12735Y0432
X1274Y04555
X13125Y0444
Y0468
Y04165
X13725
Y0444
Y0468
X1373Y04915
X1313
X1268Y0532
Y05595
Y05835
X12685Y0607
X12085
X1208Y05835
Y05595
Y0532
X1175Y04895
X1115
X107Y053
Y05575
Y05815
X10705Y0605
X10105
X101Y05815
Y05575
Y053
X098Y0489
X092
X0875Y05295
Y0557
Y0581
X08755Y06045
X08155
X0815Y0581
Y0557
Y05295
X0785Y04895
X0725
X0683Y053
Y05575
Y05815
X06835Y0605
X06235
X0623Y05815
Y05575
Y053
X05925Y0489
X05325
X04875Y05295
Y0557
Y0581
X0488Y06045
X0428
X04275Y0581
Y0557
Y05295
X0343717Y0518
Y04965
X0308283
Y0518
T04
X0357331Y0261591
Y027159
Y0281591
Y029159
X0387331
Y0281591
Y027159
Y0261591
Y0320646
Y0330646
Y0340646
Y0350646
Y0379701
Y0389701
Y0399701
Y0409701
Y0438756
Y0448756
Y0458756
X0357331
Y0448756
Y0438756
Y0409701
Y0399701
Y0389701
Y0379701
Y0350646
Y0340646
Y0330646
Y0320646
Y0468756
Y0497811
Y0507811
Y0517811
Y0527811
X0387331
Y0517811
Y0507811
Y0497811
Y0468756
T05
X03425Y01445
X126Y02595
X127
X128
X12975Y02935
X13075
X13175
X138Y03005
X1211Y0264
X11195Y02915
X11095
X10995
X1082Y02575
X1072
X1062
X10115Y02635
X09245Y0291
X09145
X09045
X0887Y0257
X0877
X0867
X082Y0264
X07295Y02915
X07195
X07095
X0692Y02575
X0682
X0672
X06285Y02635
X0537Y0291
X0527
X0517
X04995Y0257
X04895
X04795
X1253Y0485
X1263
X1273
X12905Y0519
X13005
X13105
X1373Y0526
X121Y04895
X11125Y0517
X11025
X10925
X1075Y0483
X1065
X1055
X101Y0489
X09175Y05165
X09075
X08975
X088Y04825
X087
X086
X082Y0489
X07225Y0517
X07125
X07025
X0685Y0483
X0675
X0665
X06265Y0489
X053Y05165
X052
X051
X04925Y04825
X04825
X04725
X10525Y06685
X10905Y06545
T06
X02875Y0143
X1235Y0191
X1037Y0189
X08415
X06475
X04725
X03955Y0246
X04065Y0284
X04125Y0316
X04145Y03415
X04135Y03765
X0407Y04095
X0413Y04395
X04125Y04675
X0532Y03955
X07245Y03935
X09195Y03955
X11145Y0395
X13125Y0397
X04185Y05135
X0391Y05585
X02835Y047
T07
X0281534Y0372
Y0382
Y0392
X0291534
Y0402
X0281534
Y0412
X0291534
Y0382
Y0372
T08
X0442913Y0150591
X0462598
X0482283
X054048
X0560165
X057985
X0638905
X0658591
X0678275
X0737331
X0757016
X0776701
X0835756
X0855441
X0875126
X0934181
X0953866
X0973551
X1032606
X1052291
X1071976
X1131032
X1150716
X1170401
X1229457
X1249142
X1268827
X1327882
X1347567
X1367252
X027874Y0570866
Y0590551
Y0610236
X0278728Y0678315
Y0698
Y0717685
T09
X05505Y0801
X0278
T10
X0334146Y066848
Y0721591
X0432571
Y066848
X0530996
Y0721591
X0629421
Y066848
X0727846
Y0721591
X0826272
Y066848
X0924697
Y0721591
X1023122
Y066848
M30
