G04*
G04 #@! TF.GenerationSoftware,Altium Limited,Altium Designer,20.0.10 (225)*
G04*
G04 Layer_Physical_Order=1*
G04 Layer_Color=255*
%FSLAX25Y25*%
%MOIN*%
G70*
G01*
G75*
%ADD13C,0.01575*%
%ADD37C,0.06102*%
%ADD38C,0.05906*%
%ADD39C,0.05512*%
%ADD40C,0.07677*%
G04:AMPARAMS|DCode=41|XSize=76.77mil|YSize=76.77mil|CornerRadius=19.19mil|HoleSize=0mil|Usage=FLASHONLY|Rotation=270.000|XOffset=0mil|YOffset=0mil|HoleType=Round|Shape=RoundedRectangle|*
%AMROUNDEDRECTD41*
21,1,0.07677,0.03839,0,0,270.0*
21,1,0.03839,0.07677,0,0,270.0*
1,1,0.03839,-0.01919,-0.01919*
1,1,0.03839,-0.01919,0.01919*
1,1,0.03839,0.01919,0.01919*
1,1,0.03839,0.01919,-0.01919*
%
%ADD41ROUNDEDRECTD41*%
%ADD42R,0.05315X0.05315*%
%ADD43C,0.05315*%
%ADD44R,0.05315X0.05315*%
%ADD45R,0.04724X0.04724*%
%ADD46C,0.04724*%
%ADD47C,0.08071*%
%ADD48C,0.07181*%
%ADD49R,0.07677X0.07677*%
%ADD50R,0.05906X0.05906*%
%ADD51R,0.05906X0.05906*%
G04:AMPARAMS|DCode=52|XSize=76.77mil|YSize=76.77mil|CornerRadius=19.19mil|HoleSize=0mil|Usage=FLASHONLY|Rotation=0.000|XOffset=0mil|YOffset=0mil|HoleType=Round|Shape=RoundedRectangle|*
%AMROUNDEDRECTD52*
21,1,0.07677,0.03839,0,0,0.0*
21,1,0.03839,0.07677,0,0,0.0*
1,1,0.03839,0.01919,-0.01919*
1,1,0.03839,-0.01919,-0.01919*
1,1,0.03839,-0.01919,0.01919*
1,1,0.03839,0.01919,0.01919*
%
%ADD52ROUNDEDRECTD52*%
G04:AMPARAMS|DCode=53|XSize=62.99mil|YSize=62.99mil|CornerRadius=15.75mil|HoleSize=0mil|Usage=FLASHONLY|Rotation=90.000|XOffset=0mil|YOffset=0mil|HoleType=Round|Shape=RoundedRectangle|*
%AMROUNDEDRECTD53*
21,1,0.06299,0.03150,0,0,90.0*
21,1,0.03150,0.06299,0,0,90.0*
1,1,0.03150,0.01575,0.01575*
1,1,0.03150,0.01575,-0.01575*
1,1,0.03150,-0.01575,-0.01575*
1,1,0.03150,-0.01575,0.01575*
%
%ADD53ROUNDEDRECTD53*%
%ADD54C,0.06299*%
%ADD55R,0.06299X0.06299*%
%ADD56C,0.05000*%
D13*
X387500Y243500D02*
X390000Y246000D01*
X387500Y248500D02*
X390000Y246000D01*
X387500D02*
X395500D01*
X393799D02*
X395500D01*
X395409Y281591D02*
X398000Y279000D01*
X401500D02*
X406500Y284000D01*
X401500Y275500D02*
Y279000D01*
X399750Y277250D02*
X401500Y275500D01*
X399750Y277250D02*
X401500Y279000D01*
Y275500D02*
X403500Y273500D01*
X398000Y279000D02*
X399750Y277250D01*
X398000Y279000D02*
X401500D01*
X400500Y307500D02*
X404000D01*
Y304000D02*
Y307500D01*
X402238Y305738D02*
X412500Y316000D01*
X329000Y634500D02*
X411000Y552500D01*
Y493500D02*
Y552500D01*
X325500Y634500D02*
X329000D01*
X327250Y636250D02*
X329000Y634500D01*
X1023122Y668480D02*
X1023142Y668500D01*
X1052500D01*
X1087500Y638000D02*
X1088000D01*
X1090500Y640500D01*
X1093000Y638000D02*
X1093500D01*
X1090500Y640500D02*
X1093000Y638000D01*
X1090500D02*
Y654500D01*
X984000Y638000D02*
X984500D01*
X981500Y635500D02*
X984000Y638000D01*
X978500D02*
X979000D01*
X981500Y635500D01*
Y636652D02*
Y638000D01*
X979500D02*
X981500D01*
Y523500D02*
X998500Y506500D01*
X981500Y523500D02*
Y636652D01*
X983500Y638000D02*
X1062500D01*
X941000D02*
X979500D01*
X981500D02*
X983500D01*
X1062500D02*
X1067500D01*
X1106500Y350500D02*
X1107750Y349250D01*
X1077500Y379500D02*
X1106500Y350500D01*
X1112500Y350500D02*
X1140250Y378250D01*
X1111250Y349250D02*
X1112500Y350500D01*
X325500Y634750D02*
X325922D01*
X325500D02*
Y638000D01*
X327250Y636250D01*
X301500Y662000D02*
X325500Y638000D01*
X316500Y625500D02*
X325836Y634836D01*
X325922Y634750D02*
X326172Y634500D01*
X325836Y634836D02*
X327250Y636250D01*
X316500Y550500D02*
Y625500D01*
X283500Y517500D02*
X316500Y550500D01*
X283500Y470000D02*
Y517500D01*
X289130Y425000D02*
X303500D01*
X307913Y421370D02*
X309283Y420000D01*
X307130Y421370D02*
X307913D01*
X303500Y425000D02*
X307130Y421370D01*
X282000Y417870D02*
X289130Y425000D01*
X342500Y144500D02*
Y158500D01*
X287500Y143000D02*
Y158976D01*
X836500Y257000D02*
X867000D01*
X812500Y180000D02*
Y233000D01*
X836500Y257000D01*
X616500Y239000D02*
X661500Y284000D01*
Y390293D01*
X616500Y181011D02*
Y239000D01*
X472500Y189000D02*
X500000D01*
X647500D02*
X691467D01*
X618500Y179500D02*
X688500D01*
X692500Y183500D02*
Y189000D01*
X688500Y179500D02*
X692500Y183500D01*
X691467Y189000D02*
X692500D01*
X841500D02*
X887000D01*
X1037000D02*
X1082500D01*
X1235000Y191000D02*
X1280500D01*
X1312500Y397000D02*
Y415500D01*
X1114500Y395000D02*
Y413500D01*
X919500Y395500D02*
Y414000D01*
X829000Y286000D02*
X850500Y307500D01*
X827750Y284750D02*
X829000Y286000D01*
Y283500D02*
X841000Y271500D01*
X827750Y284750D02*
X829000Y283500D01*
X688000Y414500D02*
X724500D01*
Y393500D02*
X724707Y393707D01*
X724500Y414500D02*
X724707Y414293D01*
Y393707D02*
Y414293D01*
X532000Y395500D02*
Y414000D01*
X1025699Y284699D02*
X1037500Y272898D01*
X1025699Y284699D02*
X1045000Y304000D01*
X981699Y284699D02*
X1025699D01*
X958000Y261000D02*
X981699Y284699D01*
X1027000Y283500D02*
Y286000D01*
X1237926Y272107D02*
X1238393D01*
X1169000Y287000D02*
X1223500D01*
X1238500Y272000D01*
X1136000Y189000D02*
X1152000Y205000D01*
Y270000D02*
X1169000Y287000D01*
X1152000Y205000D02*
Y270000D01*
X1121500Y189000D02*
X1136000D01*
X1223500Y287000D02*
X1247000Y310500D01*
Y373500D01*
Y390000D01*
X1273500Y416500D01*
X1045000Y304000D02*
Y382967D01*
X1037500Y272000D02*
Y272898D01*
X958000Y230000D02*
Y261000D01*
X926500Y188500D02*
X946000D01*
X958000Y200500D02*
Y230000D01*
X946000Y188500D02*
X958000Y200500D01*
X1045000Y382967D02*
X1075500Y413467D01*
Y414500D01*
X829000Y283500D02*
Y286000D01*
X614500Y179500D02*
X616500D01*
X827750Y284750D02*
X827750Y284750D01*
X783250Y284750D02*
X827750D01*
X686854Y415647D02*
X688000Y414500D01*
X685500Y414293D02*
X688000D01*
X685500Y417000D02*
Y430000D01*
Y417000D02*
X686854Y415647D01*
X508000Y179500D02*
X614500D01*
X616500Y180000D02*
Y181011D01*
Y179500D02*
X618500D01*
X762000Y263500D02*
X783250Y284750D01*
X685500Y414293D02*
Y417000D01*
X841000Y271000D02*
Y271500D01*
X731500Y189000D02*
X762000Y219500D01*
Y263500D01*
X850500Y307500D02*
Y384000D01*
X880500Y414000D01*
X614500Y179500D02*
X616500Y181500D01*
X616989Y181011D01*
X618500Y179500D01*
X500000Y182500D02*
X503000Y179500D01*
X500000Y182500D02*
Y188500D01*
X503000Y179500D02*
X508000D01*
X458500Y168500D02*
X801000D01*
X812500Y180000D01*
X429500Y197500D02*
X458500Y168500D01*
X444000Y165500D02*
X990000D01*
X1007500Y183000D01*
X403500Y206000D02*
X444000Y165500D01*
X1304500Y352500D02*
X1310000D01*
X1106500Y350500D02*
X1112500D01*
X1106500Y350500D02*
X1106500Y350500D01*
X949500Y382000D02*
X983000D01*
X917750Y350250D02*
X949500Y382000D01*
X914500Y347000D02*
X915750Y348250D01*
X882500Y379000D02*
X910000Y351500D01*
X911250Y350250D01*
X915750D02*
X917000D01*
X914500D02*
X915750D01*
X912000D02*
X913250D01*
X915750Y348250D02*
X917000Y349500D01*
X912000D02*
X913250Y348250D01*
Y350250D02*
X914500D01*
X913250Y348250D02*
X914500Y347000D01*
X911250Y350250D02*
X912000Y349500D01*
X915750Y348250D02*
Y350250D01*
X917000Y349500D02*
X917750Y350250D01*
X913250Y348250D02*
Y350250D01*
X911250D02*
X912000D01*
X495000Y379000D02*
X523000Y351000D01*
X716250Y353750D02*
X722750D01*
X523000Y351000D02*
X524500Y349500D01*
X530750Y350750D02*
X547625Y367625D01*
X690000Y380000D02*
X716250Y353750D01*
X717500Y352500D01*
X721500D02*
X722750Y353750D01*
X529500Y349500D02*
X530750Y350750D01*
X722750Y353750D02*
X751500Y382500D01*
X523000Y351000D02*
X523250Y350750D01*
X530750D01*
X547625Y367625D02*
X561500Y381500D01*
X584000D02*
X609500Y407000D01*
X561500Y381500D02*
X584000D01*
X983000Y382000D02*
X998500Y397500D01*
X784500Y382500D02*
X803000Y401000D01*
X751500Y382500D02*
X784500D01*
X259000Y187378D02*
Y249500D01*
Y187378D02*
X287402Y158976D01*
Y219000D02*
X314937D01*
X314961Y218976D01*
Y158500D02*
X342043D01*
X342520Y158976D01*
Y218976D02*
X370079D01*
X342520D02*
X344648Y217787D01*
X387500Y206000D02*
Y261421D01*
X370079Y158976D02*
X393555Y135500D01*
X493000Y429500D02*
X525000D01*
X532000Y414000D02*
Y422500D01*
X525000Y429500D02*
X532000Y422500D01*
X471000Y422846D02*
Y433500D01*
X411000Y493500D02*
X471000Y433500D01*
Y422846D02*
X474898Y418948D01*
X278728Y678315D02*
X310685D01*
X320520Y668480D02*
X334146D01*
X310685Y678315D02*
X320520Y668480D01*
X285000Y662000D02*
X301500D01*
X279000Y668000D02*
Y678087D01*
Y668000D02*
X285000Y662000D01*
X268815Y678315D02*
X278728D01*
X259000Y668500D02*
Y668500D01*
X268815Y678315D01*
X259000Y249500D02*
Y668500D01*
X1298000Y607000D02*
X1300500Y609500D01*
Y607000D02*
Y609500D01*
Y636652D01*
X1298500Y607000D02*
X1300500D01*
X1268500D02*
X1298500D01*
X1300500Y604500D02*
Y607000D01*
Y593000D02*
Y604500D01*
X1298000Y607000D02*
X1300500Y604500D01*
X1298000Y607000D02*
X1298500D01*
X685500Y414293D02*
X686750Y415543D01*
Y415750D01*
X661500Y390293D02*
X685500Y414293D01*
X519500Y604500D02*
X553000Y638000D01*
X579000D01*
X905000D02*
X905500Y637500D01*
X524500Y349500D02*
X527000D01*
X907500Y635500D02*
X908000Y636000D01*
X905500Y637500D02*
X907000Y636000D01*
X579000Y638000D02*
X592000D01*
X907500Y635500D02*
Y636500D01*
X905000Y638000D02*
X906000D01*
X910500D02*
X941000D01*
X907500Y606500D02*
Y635500D01*
X789500Y638000D02*
X905000D01*
X909500D02*
X910500D01*
X908000Y636000D02*
X909500Y637500D01*
X527000Y349500D02*
X529500D01*
X907000Y636000D02*
X907500Y635500D01*
X519500Y604500D02*
Y604500D01*
Y602000D02*
Y604500D01*
X517000D02*
X519500Y602000D01*
X517000Y604500D02*
X519500D01*
X393555Y135500D02*
X440000D01*
X517137Y767637D02*
X550500Y801000D01*
X1311404Y516662D02*
Y518096D01*
X1313000Y491500D02*
Y515066D01*
X1311404Y516662D02*
X1313000Y515066D01*
X1310500Y519000D02*
X1311404Y518096D01*
X1112500Y517000D02*
X1113404Y516096D01*
X1115000Y489500D02*
Y513066D01*
X1113404Y514662D02*
Y516096D01*
Y514662D02*
X1115000Y513066D01*
X920000Y489000D02*
Y512566D01*
X917500Y516500D02*
X918404Y515596D01*
Y514162D02*
X920000Y512566D01*
X918404Y514162D02*
Y515596D01*
X530904Y514162D02*
Y515596D01*
X532500Y489000D02*
Y512566D01*
X530904Y514162D02*
X532500Y512566D01*
X530000Y516500D02*
X530904Y515596D01*
X494500Y513500D02*
X495250Y514250D01*
Y518750D01*
X687000Y514500D02*
X687250Y514750D01*
Y519250D01*
X723404Y514662D02*
X725000Y513066D01*
Y489500D02*
Y513066D01*
X723404Y514662D02*
Y516096D01*
X722500Y517000D02*
X723404Y516096D01*
X878000Y513000D02*
X879250Y514250D01*
Y518750D01*
X1073500Y514000D02*
X1074250Y514750D01*
Y519250D01*
X1272000Y516500D02*
X1272250Y516750D01*
Y521250D01*
X498500Y289500D02*
X498750Y289750D01*
Y294750D01*
X494544Y298956D02*
X501250Y292250D01*
X489500Y280500D02*
X501261Y292261D01*
X494544Y298956D02*
Y303956D01*
X499500Y290500D02*
Y294000D01*
X694000Y292000D02*
X696500D01*
X694000Y289500D02*
Y294500D01*
X682000Y277500D02*
X694000Y289500D01*
X690000Y298500D02*
X694000Y294500D01*
Y289500D02*
X696500Y292000D01*
X694000Y294500D02*
X696500Y292000D01*
X886000Y291500D02*
X888500D01*
X886000Y289000D02*
Y294000D01*
X877000Y280000D02*
X886000Y289000D01*
X882000Y298000D02*
X886000Y294000D01*
Y289000D02*
X888500Y291500D01*
X886000Y294000D02*
X888500Y291500D01*
X1081500D02*
X1084000D01*
X1081500Y289000D02*
Y294000D01*
X1072000Y279500D02*
X1081500Y289000D01*
X1084000Y291500D01*
X1081500Y294000D02*
X1084000Y291500D01*
X1077000Y298500D02*
X1081500Y294000D01*
X1278500Y293500D02*
X1281000D01*
X1278500Y291000D02*
Y296000D01*
X1270000Y282500D02*
X1278500Y291000D01*
X1281000Y293500D01*
X1275000Y299500D02*
X1278500Y296000D01*
X1281000Y293500D01*
X1320000Y266000D02*
Y289566D01*
X1318404Y291162D02*
X1320000Y289566D01*
X1318404Y291162D02*
Y292596D01*
X1317500Y293500D02*
X1318404Y292596D01*
X1122000Y264000D02*
Y288215D01*
X1119500Y290715D02*
X1122000Y288215D01*
X1119500Y290715D02*
Y291500D01*
X927000Y263500D02*
Y287066D01*
X925404Y288662D02*
X927000Y287066D01*
X925404Y288662D02*
Y290096D01*
X924500Y291000D02*
X925404Y290096D01*
X729500Y291500D02*
X730404Y290596D01*
X732000Y264000D02*
Y287566D01*
X730404Y289162D02*
X732000Y287566D01*
X730404Y289162D02*
Y290596D01*
X494500Y304000D02*
X494544Y303956D01*
X501261Y292261D02*
X502239D01*
X515739D02*
X517000Y291000D01*
X502239Y292261D02*
X515739D01*
X527000Y347000D02*
Y349500D01*
Y347000D02*
X529500Y349500D01*
X717500Y352500D02*
X719000Y351000D01*
X717500Y352500D02*
X719500D01*
X719000Y351000D02*
X719500Y350500D01*
X524500Y349500D02*
X527000Y347000D01*
X720000Y351000D02*
X721500Y352500D01*
X719500Y350500D02*
X720000Y351000D01*
X719500Y352500D02*
X721500D01*
X719500Y351500D02*
Y352500D01*
Y291500D02*
Y350500D01*
X914500Y347000D02*
Y349500D01*
Y291000D02*
Y347000D01*
X1108000Y349500D02*
X1109500D01*
X1111000D01*
X1107750Y349250D02*
X1109500Y347500D01*
X1111250Y349250D01*
X998500Y397500D02*
Y506500D01*
X1109500Y349500D02*
X1109500Y349500D01*
X1109500Y347500D02*
Y349500D01*
X1107750Y349250D02*
X1108000Y349500D01*
X1140250Y378250D02*
X1173250D01*
X1109500Y291500D02*
Y347500D01*
X1173250Y378250D02*
X1194500Y399500D01*
Y421500D01*
X1307500Y349500D02*
Y351500D01*
X1305500D02*
X1307500D01*
X1309500D01*
X1276750Y380250D02*
X1305500Y351500D01*
X1309500D02*
X1331000Y373000D01*
X1305500Y351500D02*
X1307500Y349500D01*
X1309500Y351500D01*
X1331000Y373000D02*
X1344000D01*
X1307500Y293500D02*
Y349500D01*
X594500Y522500D02*
Y636000D01*
X596000Y638000D02*
X597000D01*
X785000D02*
X786500Y636500D01*
X787000Y636000D02*
X787500Y636500D01*
X1178000Y638000D02*
X1298500D01*
X1300500Y565060D02*
Y590000D01*
Y638000D02*
X1302500D01*
X595000Y636500D02*
X596500Y638000D01*
X594000Y636500D02*
X594500Y636000D01*
X784500Y638000D02*
X785500D01*
X787000Y636000D02*
Y637000D01*
X1300500Y590000D02*
Y593000D01*
Y636652D02*
Y638000D01*
X594500Y636000D02*
X595000Y636500D01*
X592500Y638000D02*
X594000Y636500D01*
X714500Y638000D02*
X784500D01*
X787000Y523000D02*
Y636000D01*
X788500Y638000D02*
X789500D01*
X786500Y636500D02*
X787000Y636000D01*
X527000Y293000D02*
Y347000D01*
X597000Y638000D02*
X710000D01*
X594500Y636000D02*
Y637000D01*
X1302500Y638000D02*
X1317000D01*
X592000D02*
X593000D01*
X1298500D02*
X1300500D01*
X787500Y636500D02*
X789000Y638000D01*
X609500Y407000D02*
Y407000D01*
Y507500D01*
X479846Y414000D02*
X509265D01*
X475820Y418025D02*
X479846Y414000D01*
X474898Y418948D02*
X475820Y418025D01*
X316500Y339784D02*
X335784Y320500D01*
X357185D01*
X357331Y320646D01*
X496000Y515000D02*
X496250Y515250D01*
Y517750D01*
X688000Y516000D02*
Y518500D01*
X880000Y515000D02*
X880250Y515250D01*
Y517750D01*
X1075000Y515500D02*
Y518500D01*
X1273000Y517500D02*
X1273250Y517750D01*
Y520250D01*
X596500Y638000D02*
X597000D01*
X592000D02*
X592500D01*
X789000D02*
X789500D01*
X784500D02*
X785000D01*
X1229457Y135457D02*
Y137500D01*
Y135457D02*
X1231500D01*
X1133000D02*
X1227500D01*
X1229457D01*
X1314957D02*
X1327882Y148382D01*
X1231500Y135457D02*
X1314957D01*
X1229457Y137500D02*
Y150591D01*
X1227500Y135500D02*
Y135543D01*
X1229457Y137500D01*
X1229500D02*
X1231500Y135500D01*
X1229457Y137500D02*
X1229500D01*
X1131032Y135457D02*
Y137469D01*
Y135457D02*
X1133000D01*
X1129063D02*
X1131032D01*
Y137469D02*
Y150591D01*
X1117839Y135457D02*
X1129063D01*
X1129000Y135500D02*
X1129063D01*
X1131032Y137469D01*
X1133000Y135500D01*
X1032606Y137500D02*
Y150591D01*
X1030500Y135457D02*
X1032606D01*
Y135457D02*
Y137500D01*
X1034500Y135457D02*
X1087439D01*
X1131032Y135457D02*
X1131032Y135457D01*
X1019457Y135457D02*
X1030500D01*
X1032606D02*
X1034500D01*
X1030500Y135500D02*
X1032500Y137500D01*
X1032606D01*
X1034500Y135500D02*
Y135606D01*
X1032606Y137500D02*
X1034500Y135606D01*
X934181Y135500D02*
X936500D01*
X934181Y138000D02*
Y150591D01*
X1032606Y135457D02*
X1032606Y135457D01*
X934181Y135500D02*
Y138000D01*
X932000Y135500D02*
X934181D01*
X921032D02*
X932000D01*
X936500D02*
X1019457D01*
X932000Y135500D02*
Y135819D01*
X934181Y138000D01*
X936500Y135500D02*
Y135681D01*
X934181Y138000D02*
X936500Y135681D01*
X835756Y137500D02*
Y150591D01*
Y135500D02*
X838000D01*
X921032D01*
X833500D02*
X835756D01*
X822606D02*
X833500D01*
X835756Y135500D02*
Y137500D01*
X835500Y137500D02*
X836000D01*
X833500Y135500D02*
X835500Y137500D01*
X836000Y137500D02*
Y137500D01*
Y137500D02*
X838000Y135500D01*
X835756D02*
X835756Y135500D01*
X735000Y135500D02*
X737331Y137831D01*
X735000Y135500D02*
X737331D01*
Y137500D02*
Y150591D01*
X724181Y135500D02*
X735000D01*
X737331D02*
X739500D01*
X737331Y135500D02*
Y137500D01*
X739500Y135500D02*
X822000D01*
X737500Y137500D02*
X738152Y136848D01*
X739500Y135500D01*
X625905D02*
X636905D01*
X641000D02*
X724181D01*
X641000D02*
X724181D01*
X625756D02*
X636905D01*
X638905Y135500D02*
Y137500D01*
Y135500D02*
X641000D01*
X636905D02*
X638905D01*
Y137500D02*
Y150591D01*
X636500Y135500D02*
X636905D01*
X638905Y137500D01*
X639000D02*
X641000Y135500D01*
X638905Y137500D02*
X639000D01*
X538500Y135500D02*
X540480D01*
X542480D01*
X625756D01*
X540480Y137500D02*
Y150591D01*
Y135500D02*
X543000D01*
X540480D02*
Y137500D01*
X638905Y135500D02*
X638905Y135500D01*
X444000D02*
X538500D01*
X625756D02*
X625756Y135500D01*
X542480Y135500D02*
X543000D01*
X540480Y137500D02*
X542480Y135500D01*
X538500D02*
Y135520D01*
X540480Y137500D01*
X442055Y135500D02*
X444000D01*
X442055D02*
Y136848D01*
X440000Y135500D02*
X442055D01*
Y136848D02*
Y150591D01*
X440000Y135500D02*
X442000Y137500D01*
X442652Y136848D01*
X444000Y135500D01*
X1300500Y636000D02*
X1302500Y638000D01*
X1299848Y636652D02*
X1300500Y636000D01*
X1298500Y638000D02*
X1299848Y636652D01*
X1102500Y567500D02*
Y603000D01*
X1173000Y638000D02*
X1175500D01*
X1100500D02*
X1102500D01*
Y603000D02*
Y605000D01*
X1104500Y638000D02*
X1173000D01*
X1175500Y636152D02*
Y638000D01*
X1101152Y605000D02*
X1102500D01*
Y638000D02*
X1104500D01*
X1175500Y636152D02*
X1175500Y529000D01*
X1175500Y638000D02*
X1178000D01*
X1070500Y605000D02*
X1101152D01*
X1067500Y638000D02*
X1100500D01*
X1102500Y605000D02*
Y607000D01*
Y636652D02*
Y638000D01*
Y607000D02*
Y636652D01*
X1175500Y635500D02*
X1178000Y638000D01*
X1174848Y636152D02*
X1175500Y635500D01*
X1173000Y638000D02*
X1174848Y636152D01*
X1100500Y605000D02*
X1102500Y603000D01*
X1100500Y605000D02*
X1101152Y605652D01*
X1102500Y607000D01*
Y636000D02*
X1104500Y638000D01*
X1101848Y636652D02*
X1102500Y636000D01*
X1100500Y638000D02*
X1101848Y636652D01*
X905500Y604500D02*
X907500Y602500D01*
Y516500D02*
Y602500D01*
Y604500D01*
X875500D02*
X905500D01*
X905500D01*
X907500Y606500D01*
Y604500D02*
Y606500D01*
X905500Y604500D02*
X907500D01*
X906000Y638000D02*
X907500D01*
Y636677D02*
Y638000D01*
X909500D01*
X907500Y636500D02*
Y636677D01*
X712500Y605000D02*
Y607000D01*
Y581844D02*
Y603000D01*
X710500Y605000D02*
X712500D01*
Y607000D02*
Y613500D01*
X519500Y517000D02*
Y602000D01*
X712500Y603000D02*
Y605000D01*
X683500D02*
X710500D01*
X488000Y604500D02*
X517000D01*
X710500Y605000D02*
X712500Y603000D01*
X710500Y605000D02*
X712500Y607000D01*
X711000Y637500D02*
X712500Y636000D01*
X712500Y613500D02*
X712500Y613500D01*
Y636000D01*
Y638000D02*
X714500D01*
X710500D02*
X711000Y637500D01*
X710000Y638000D02*
X711500D01*
X712500Y636000D02*
Y638000D01*
X710000D02*
X710500D01*
X712500Y636000D02*
X714500Y638000D01*
X712500Y636000D02*
X712500D01*
X711500Y638000D02*
Y638000D01*
X787000Y637000D02*
Y637250D01*
Y638000D01*
X787750D02*
X788500D01*
X787000D02*
X787750D01*
X711500D02*
X712500D01*
X594500D02*
X596000D01*
X593000D02*
X594500D01*
X785500D02*
X787000D01*
X712500Y517000D02*
Y581844D01*
X1317000Y638000D02*
X1344000Y611000D01*
X334146Y721591D02*
Y745646D01*
X356000Y767500D02*
X386661D01*
X334146Y745646D02*
X356000Y767500D01*
X712500Y613500D02*
Y613500D01*
X594500Y637000D02*
Y638000D01*
X450254Y318000D02*
X515000D01*
X1087439Y135457D02*
X1117839Y135457D01*
X1087439Y135457D02*
X1117839D01*
X921032Y135500D02*
X921032Y135500D01*
X1019457D02*
X1019457Y135500D01*
X822000Y135500D02*
X822606D01*
X822606Y135500D01*
X724181Y135500D02*
X724181Y135500D01*
X387331Y320646D02*
X416000Y291976D01*
X403500Y206000D02*
Y273500D01*
X387331Y281591D02*
X395409D01*
X387331Y261591D02*
X387500Y261421D01*
Y206000D02*
X431500Y162000D01*
X291000Y371466D02*
X291534Y372000D01*
X291000Y297716D02*
Y371466D01*
Y262283D02*
X291283Y262000D01*
X356921D02*
X357331Y261591D01*
X291283Y262000D02*
X356921D01*
X320783Y281500D02*
X357331D01*
X304000Y298284D02*
X320783Y281500D01*
X304000Y333717D02*
Y369534D01*
X291534Y382000D02*
X304000Y369534D01*
X292047Y392500D02*
X305000D01*
X316500Y381000D01*
X344216Y459000D02*
X357331D01*
X345000Y439000D02*
X357331D01*
X344500Y439500D02*
X345000Y439000D01*
X316500Y375217D02*
Y381000D01*
X350799Y379701D02*
X357331D01*
X345216Y385283D02*
Y399500D01*
Y385283D02*
X350799Y379701D01*
X368150Y404650D02*
Y415350D01*
X358130Y400500D02*
X364000D01*
X368150Y404650D01*
X357331Y399701D02*
X358130Y400500D01*
X344717Y420500D02*
X363000D01*
X368150Y415350D01*
X265500Y438500D02*
X286500Y459500D01*
X308283D02*
X308784Y459000D01*
X286500Y459500D02*
X308283D01*
X271500Y424500D02*
X286500Y439500D01*
X310861D01*
X344000Y418284D02*
X344216Y418500D01*
X271500Y409500D02*
Y424500D01*
X280705Y402829D02*
X281534Y402000D01*
X278171Y402829D02*
X280705D01*
X271500Y409500D02*
X278171Y402829D01*
X265500Y406000D02*
Y438500D01*
X280705Y392829D02*
X281534Y392000D01*
X278671Y392829D02*
X280705D01*
X265500Y406000D02*
X278671Y392829D01*
X281534Y412000D02*
X282000Y412466D01*
Y417870D01*
X291534Y411966D02*
Y412000D01*
X304000Y399500D02*
X309784D01*
X291534Y411966D02*
X304000Y399500D01*
X282692Y402000D02*
X283722D01*
X500086Y189000D02*
Y203914D01*
X500000Y188500D02*
X516265D01*
X500000Y204000D02*
X500086Y203914D01*
X522000Y188500D02*
X539000D01*
X516265D02*
X522000D01*
X1194500Y421500D02*
Y510000D01*
X1175500Y529000D02*
X1194500Y510000D01*
X594500Y522500D02*
X609500Y507500D01*
X803000Y401000D02*
Y507000D01*
X787000Y523000D02*
X803000Y507000D01*
X519500Y517000D02*
X520000Y516500D01*
X1102500Y517000D02*
Y567500D01*
X1300500Y519000D02*
Y565060D01*
X984276Y668000D02*
X1023122D01*
X983752Y667476D02*
X984276Y668000D01*
X963043Y668500D02*
X964067Y667476D01*
X924697Y668500D02*
X963043D01*
X924787Y721500D02*
X1023000D01*
X924697Y721591D02*
X924787Y721500D01*
X826291Y668500D02*
X924697D01*
X826272Y668480D02*
X826291Y668500D01*
X727846Y668480D02*
X766213D01*
X767216Y667476D01*
X569362Y668480D02*
X570366Y667476D01*
X530996Y668480D02*
X569362D01*
X630740Y720272D02*
X655228D01*
X666882Y708618D01*
X667882D01*
X669055Y707445D01*
X885327Y706847D02*
Y707327D01*
X899591Y721591D02*
X924697D01*
X885327Y707327D02*
X899591Y721591D01*
X826272D02*
X826362Y721500D01*
X850988D02*
X865642Y706847D01*
X826362Y721500D02*
X850988D01*
X727937D02*
X826272D01*
X727846Y721591D02*
X727937Y721500D01*
X787425Y668000D02*
X826272D01*
X786902Y667476D02*
X787425Y668000D01*
X629421Y668480D02*
X727846D01*
X491626Y706847D02*
X506370Y721591D01*
X491626Y706847D02*
X491626D01*
X506370Y721591D02*
X530996D01*
X703221D02*
X727846D01*
X688476Y706847D02*
X703221Y721591D01*
X629421D02*
X630740Y720272D01*
X590575Y668000D02*
X629421D01*
X590051Y667476D02*
X590575Y668000D01*
X530996Y721591D02*
X629421D01*
X432480Y721500D02*
X457287D01*
X471941Y706847D01*
X334146Y721500D02*
X432480Y721500D01*
X432571Y721591D01*
X386661Y767500D02*
X432500D01*
Y767637D02*
X517137D01*
X393724Y668000D02*
X432571D01*
X433000Y668500D02*
X531486D01*
X432591D02*
X433000D01*
X432571Y668480D02*
X432591Y668500D01*
X393201Y667476D02*
X393724Y668000D01*
X334626D02*
X373516D01*
X334146Y668480D02*
X334626Y668000D01*
X278728Y717685D02*
Y801000D01*
X431500Y162000D02*
X1195000D01*
X1204500Y171500D01*
Y239000D01*
X1225000Y259500D01*
X1260000D01*
X1007500Y183000D02*
Y242500D01*
X1022500Y257500D01*
X1062000D01*
X416000Y211000D02*
Y291976D01*
Y211000D02*
X429500Y197500D01*
X1280500Y191000D02*
X1296765D01*
X1280500D02*
Y206500D01*
X1270000Y259500D02*
Y282500D01*
X1275000Y299500D02*
Y306500D01*
X1281000Y293500D02*
X1297500D01*
X1273500Y416500D02*
X1289765D01*
X1273500D02*
Y432000D01*
X1263000Y507500D02*
X1274500Y519000D01*
X1263000Y485000D02*
Y507500D01*
X1268000Y525500D02*
Y532000D01*
X1274500Y519000D02*
X1290500D01*
X1268000Y525500D02*
X1274500Y519000D01*
X1082500Y189000D02*
X1098765D01*
X1082500D02*
Y204500D01*
X1072000Y257500D02*
Y279500D01*
X1077000Y298500D02*
Y304500D01*
X1084000Y291500D02*
X1099500D01*
X1075500Y414500D02*
Y430000D01*
Y414500D02*
X1114500D01*
X1065000Y505500D02*
X1076500Y517000D01*
X1065000Y483000D02*
Y505500D01*
X1070000Y523500D02*
Y530000D01*
X1076500Y517000D02*
X1092500D01*
X1070000Y523500D02*
X1076500Y517000D01*
X887586Y189000D02*
Y203914D01*
Y188500D02*
X926500D01*
X887500Y204000D02*
X887586Y203914D01*
X877000Y257000D02*
Y280000D01*
X882000Y298000D02*
Y304000D01*
X904000Y291500D02*
X904500Y291000D01*
X888500Y291500D02*
X904000D01*
X880500Y414000D02*
X896765D01*
X880500D02*
Y429500D01*
X870000Y505000D02*
X881500Y516500D01*
X870000Y482500D02*
Y505000D01*
X875000Y523000D02*
Y529500D01*
Y523000D02*
X881500Y516500D01*
X897500D01*
X675000Y502500D02*
X689500Y517000D01*
X675000Y483000D02*
Y502500D01*
X683000Y523500D02*
Y530000D01*
Y523500D02*
X689500Y517000D01*
X702500D01*
X692586Y190000D02*
Y204414D01*
X692500Y189000D02*
X731500D01*
X692500Y204500D02*
X692586Y204414D01*
X682000Y257500D02*
Y277500D01*
X690000Y298500D02*
Y304500D01*
X709000Y292000D02*
X709500Y291500D01*
X696500Y292000D02*
X709000D01*
X494500Y513500D02*
X497500Y516500D01*
X489500Y257000D02*
Y280500D01*
X482500Y501500D02*
X494500Y513500D01*
X482500Y482500D02*
Y501500D01*
X497500Y516500D02*
X510000D01*
X488020Y525980D02*
X497500Y516500D01*
X488020Y525980D02*
Y528980D01*
X487500Y529500D02*
X488020Y528980D01*
X630000Y304477D02*
Y329977D01*
X690000Y331133D02*
Y357740D01*
X630500Y359500D02*
Y379321D01*
X628500Y357500D02*
X630500Y359500D01*
X627000Y356000D02*
X628500Y357500D01*
X683000Y557500D02*
Y581556D01*
X623500Y581500D02*
Y604430D01*
X623000Y529184D02*
Y556684D01*
X500500Y227500D02*
Y251425D01*
X494500Y328893D02*
Y331500D01*
X500500Y251425D02*
Y255000D01*
X434500Y304000D02*
Y331500D01*
X494500D02*
Y355500D01*
X435000Y356000D02*
Y379000D01*
X434500Y355500D02*
X435000Y356000D01*
X440500Y204500D02*
Y227500D01*
Y204500D02*
X441000Y204000D01*
X538637Y264363D02*
X539500Y263500D01*
X538637Y264363D02*
Y266205D01*
X538500Y266342D02*
X538637Y266205D01*
X538500Y266342D02*
Y288066D01*
X537000Y289566D02*
X538500Y288066D01*
X537000Y289566D02*
Y291000D01*
X599500Y240500D02*
Y263500D01*
X599000Y240000D02*
X599500Y240500D01*
X539000Y216857D02*
Y240000D01*
X599000Y191000D02*
Y216000D01*
X791500Y240500D02*
X792000Y241000D01*
Y264000D01*
X633000Y205000D02*
X633500Y204500D01*
X633000Y205000D02*
Y228000D01*
X693000Y251924D02*
Y255500D01*
Y228000D02*
Y251924D01*
X1083000Y228000D02*
Y251924D01*
Y255500D01*
X1017000Y304500D02*
Y332000D01*
X1077000D02*
Y356000D01*
X1017500Y356500D02*
Y379500D01*
X1017000Y356000D02*
X1017500Y356500D01*
X1023000Y205000D02*
Y228000D01*
Y205000D02*
X1023500Y204500D01*
X1182000Y241000D02*
Y264000D01*
X1181500Y240500D02*
X1182000Y241000D01*
X1121500Y217357D02*
Y240500D01*
X1181500Y191500D02*
Y216500D01*
X1104500Y189000D02*
X1121500D01*
X1098765D02*
X1104500D01*
X986500Y191000D02*
Y216000D01*
X926500Y216857D02*
Y240000D01*
X986500D02*
X987000Y240500D01*
Y263500D01*
X828000Y204500D02*
X828500Y204000D01*
X828000Y204500D02*
Y227500D01*
X822000Y355500D02*
X822500Y356000D01*
Y379000D01*
X882000Y331500D02*
Y355500D01*
X822000Y304000D02*
Y331500D01*
X888000Y251425D02*
Y255000D01*
X882000Y328893D02*
Y331500D01*
X888000Y227500D02*
Y251425D01*
X1296765Y191000D02*
X1302500D01*
X1319500D01*
X1379500Y193500D02*
Y218500D01*
X1319500Y219357D02*
Y242500D01*
X1379500D02*
X1380000Y243000D01*
Y266000D01*
X1221000Y207000D02*
X1221500Y206500D01*
X1221000Y207000D02*
Y230000D01*
X1215000Y358000D02*
X1215500Y358500D01*
Y381500D01*
X1275000Y334000D02*
Y358000D01*
X1215000Y306500D02*
Y334000D01*
X1281000Y253924D02*
Y257500D01*
X1275000Y331393D02*
Y334000D01*
X1281000Y230000D02*
Y253924D01*
X731500Y216500D02*
Y240500D01*
X791500Y197836D02*
Y214000D01*
Y216000D02*
X792000Y216500D01*
X791500Y191781D02*
Y197836D01*
X784500Y417281D02*
Y423336D01*
Y441500D02*
X785000Y442000D01*
X784500Y423336D02*
Y439500D01*
X724500Y442000D02*
Y466000D01*
X1274000Y455500D02*
Y479424D01*
X1268000Y556893D02*
Y559500D01*
X1274000Y479424D02*
Y483000D01*
X1208000Y532000D02*
Y559500D01*
X1268000D02*
Y583500D01*
X1208500Y584000D02*
Y607000D01*
X1208000Y583500D02*
X1208500Y584000D01*
X1214000Y432500D02*
Y455500D01*
Y432500D02*
X1214500Y432000D01*
X1373000Y468500D02*
Y491500D01*
X1372500Y468000D02*
X1373000Y468500D01*
X1312500Y444857D02*
Y468000D01*
X1372500Y419000D02*
Y444000D01*
X1295500Y416500D02*
X1312500D01*
X1289765D02*
X1295500D01*
X881000Y453000D02*
Y476925D01*
X875000Y554393D02*
Y557000D01*
X881000Y476925D02*
Y480500D01*
X815000Y529500D02*
Y557000D01*
X875000D02*
Y581000D01*
X815500Y581500D02*
Y604500D01*
X815000Y581000D02*
X815500Y581500D01*
X821000Y430000D02*
Y453000D01*
Y430000D02*
X821500Y429500D01*
X980000Y466000D02*
Y489000D01*
X979500Y465500D02*
X980000Y466000D01*
X919500Y442357D02*
Y465500D01*
X979500Y416500D02*
Y441500D01*
X902500Y414000D02*
X919500D01*
X896765D02*
X902500D01*
X1174500Y417000D02*
Y442000D01*
X1114500Y442857D02*
Y466000D01*
X1174500D02*
X1175000Y466500D01*
Y489500D01*
X1016000Y430500D02*
X1016500Y430000D01*
X1016000Y430500D02*
Y453500D01*
X1010000Y581500D02*
X1010500Y582000D01*
Y605000D01*
X1070000Y557500D02*
Y581500D01*
X1010000Y530000D02*
Y557500D01*
X1076000Y477424D02*
Y481000D01*
X1070000Y554893D02*
Y557500D01*
X1076000Y453500D02*
Y477424D01*
X686000Y453500D02*
Y477424D01*
Y481000D01*
X626000Y430500D02*
Y453500D01*
Y430500D02*
X626500Y430000D01*
X785000Y466500D02*
Y489500D01*
X784500Y466000D02*
X785000Y466500D01*
X509265Y414000D02*
X515000D01*
X532000D01*
X592000Y416500D02*
Y441500D01*
X532000Y442357D02*
Y465500D01*
X592000D02*
X592500Y466000D01*
Y489000D01*
X433500Y430000D02*
X434000Y429500D01*
X433500Y430000D02*
Y453000D01*
X427500Y581000D02*
X428000Y581500D01*
Y604500D01*
X487500Y557000D02*
Y581000D01*
X427500Y529500D02*
Y557000D01*
X493500Y476925D02*
Y480500D01*
X487500Y554393D02*
Y557000D01*
X493500Y453000D02*
Y476925D01*
D37*
X395500Y246000D02*
D03*
X406500Y284000D02*
D03*
X412500Y316000D02*
D03*
X414500Y341500D02*
D03*
X413500Y376500D02*
D03*
X407000Y409500D02*
D03*
X413000Y439500D02*
D03*
X412500Y467500D02*
D03*
X418500Y513500D02*
D03*
X391000Y558500D02*
D03*
X283500Y470000D02*
D03*
X287500Y143000D02*
D03*
X472500Y189000D02*
D03*
X647500D02*
D03*
X841500D02*
D03*
X1037000D02*
D03*
X1235000Y191000D02*
D03*
X1312500Y397000D02*
D03*
X1114500Y395000D02*
D03*
X919500Y395500D02*
D03*
X724500Y393500D02*
D03*
X532000Y395500D02*
D03*
D38*
X1090500Y654500D02*
D03*
X1052500Y668500D02*
D03*
X342500Y144500D02*
D03*
X1380000Y300500D02*
D03*
X1373000Y526000D02*
D03*
X1211000Y264000D02*
D03*
X1210000Y489500D02*
D03*
X1011500Y263500D02*
D03*
X1010000Y489000D02*
D03*
X820000Y264000D02*
D03*
Y489000D02*
D03*
X628500Y263500D02*
D03*
X626500Y489000D02*
D03*
X291534Y392000D02*
D03*
X281534D02*
D03*
X291534Y402000D02*
D03*
X281534D02*
D03*
X291534Y412000D02*
D03*
X281534Y382000D02*
D03*
Y372000D02*
D03*
X291534Y382000D02*
D03*
Y372000D02*
D03*
X357331Y281591D02*
D03*
Y271590D02*
D03*
Y261591D02*
D03*
X387331Y291590D02*
D03*
Y281591D02*
D03*
Y271590D02*
D03*
Y261591D02*
D03*
X357331Y340646D02*
D03*
Y330646D02*
D03*
Y320646D02*
D03*
X387331Y350646D02*
D03*
Y340646D02*
D03*
Y330646D02*
D03*
Y320646D02*
D03*
X357331Y458756D02*
D03*
Y448756D02*
D03*
Y438756D02*
D03*
X387331Y468756D02*
D03*
Y458756D02*
D03*
Y448756D02*
D03*
Y438756D02*
D03*
X357331Y399701D02*
D03*
Y389701D02*
D03*
Y379701D02*
D03*
X387331Y409701D02*
D03*
Y399701D02*
D03*
Y389701D02*
D03*
Y379701D02*
D03*
X357331Y517811D02*
D03*
Y507811D02*
D03*
Y497811D02*
D03*
X387331Y527811D02*
D03*
Y517811D02*
D03*
Y507811D02*
D03*
Y497811D02*
D03*
D39*
X287402Y158976D02*
D03*
Y218976D02*
D03*
X314961Y158976D02*
D03*
Y218976D02*
D03*
X342520Y158976D02*
D03*
Y218976D02*
D03*
X370079Y158976D02*
D03*
Y218976D02*
D03*
X440500Y227500D02*
D03*
X500500D02*
D03*
X440000Y204000D02*
D03*
X500000D02*
D03*
X494500Y304000D02*
D03*
X434500D02*
D03*
X494500Y331500D02*
D03*
X434500D02*
D03*
X494500Y355500D02*
D03*
X434500D02*
D03*
X495000Y379000D02*
D03*
X435000D02*
D03*
X599000Y240000D02*
D03*
X539000D02*
D03*
X599000Y216000D02*
D03*
X539000D02*
D03*
X599000Y188500D02*
D03*
X539000D02*
D03*
X731500Y189000D02*
D03*
X791500D02*
D03*
X731500Y216500D02*
D03*
X791500D02*
D03*
X731500Y240500D02*
D03*
X791500D02*
D03*
X732000Y264000D02*
D03*
X792000D02*
D03*
X630500Y379500D02*
D03*
X690500D02*
D03*
X630000Y356000D02*
D03*
X690000D02*
D03*
X630000Y332000D02*
D03*
X690000D02*
D03*
X630000Y304500D02*
D03*
X690000D02*
D03*
X692500Y204500D02*
D03*
X632500D02*
D03*
X693000Y228000D02*
D03*
X633000D02*
D03*
X1083000D02*
D03*
X1023000D02*
D03*
X1082500Y204500D02*
D03*
X1022500D02*
D03*
X1017000Y304500D02*
D03*
X1077000D02*
D03*
X1017000Y332000D02*
D03*
X1077000D02*
D03*
X1017000Y356000D02*
D03*
X1077000D02*
D03*
X1017500Y379500D02*
D03*
X1077500D02*
D03*
X1122000Y264000D02*
D03*
X1182000D02*
D03*
X1121500Y240500D02*
D03*
X1181500D02*
D03*
X1121500Y216500D02*
D03*
X1181500D02*
D03*
X1121500Y189000D02*
D03*
X1181500D02*
D03*
X926500Y188500D02*
D03*
X986500D02*
D03*
X926500Y216000D02*
D03*
X986500D02*
D03*
X926500Y240000D02*
D03*
X986500D02*
D03*
X927000Y263500D02*
D03*
X987000D02*
D03*
X822500Y379000D02*
D03*
X882500D02*
D03*
X822000Y355500D02*
D03*
X882000D02*
D03*
X822000Y331500D02*
D03*
X882000D02*
D03*
X822000Y304000D02*
D03*
X882000D02*
D03*
X887500Y204000D02*
D03*
X827500D02*
D03*
X888000Y227500D02*
D03*
X828000D02*
D03*
X539500Y263500D02*
D03*
X599500D02*
D03*
X1379500Y191000D02*
D03*
X1319500D02*
D03*
X1379500Y218500D02*
D03*
X1319500D02*
D03*
X1379500Y242500D02*
D03*
X1319500D02*
D03*
X1380000Y266000D02*
D03*
X1320000D02*
D03*
X1275500Y381500D02*
D03*
X1215500D02*
D03*
X1275000Y358000D02*
D03*
X1215000D02*
D03*
X1275000Y334000D02*
D03*
X1215000D02*
D03*
X1275000Y306500D02*
D03*
X1215000D02*
D03*
X1220500Y206500D02*
D03*
X1280500D02*
D03*
X1221000Y230000D02*
D03*
X1281000D02*
D03*
X1274000Y455500D02*
D03*
X1214000D02*
D03*
X1273500Y432000D02*
D03*
X1213500D02*
D03*
X1208000Y532000D02*
D03*
X1268000D02*
D03*
X1208000Y559500D02*
D03*
X1268000D02*
D03*
X1208000Y583500D02*
D03*
X1268000D02*
D03*
X1208500Y607000D02*
D03*
X1268500D02*
D03*
X1313000Y491500D02*
D03*
X1373000D02*
D03*
X1312500Y468000D02*
D03*
X1372500D02*
D03*
X1312500Y444000D02*
D03*
X1372500D02*
D03*
X1312500Y416500D02*
D03*
X1372500D02*
D03*
X592500Y489000D02*
D03*
X532500D02*
D03*
X821000Y453000D02*
D03*
X881000D02*
D03*
X820500Y429500D02*
D03*
X880500D02*
D03*
X875000Y529500D02*
D03*
X815000D02*
D03*
X875000Y557000D02*
D03*
X815000D02*
D03*
X875000Y581000D02*
D03*
X815000D02*
D03*
X875500Y604500D02*
D03*
X815500D02*
D03*
X980000Y489000D02*
D03*
X920000D02*
D03*
X979500Y465500D02*
D03*
X919500D02*
D03*
X979500Y441500D02*
D03*
X919500D02*
D03*
X979500Y414000D02*
D03*
X919500D02*
D03*
X1174500Y414500D02*
D03*
X1114500D02*
D03*
X1174500Y442000D02*
D03*
X1114500D02*
D03*
X1174500Y466000D02*
D03*
X1114500D02*
D03*
X1175000Y489500D02*
D03*
X1115000D02*
D03*
X1070500Y605000D02*
D03*
X1010500D02*
D03*
X1070000Y581500D02*
D03*
X1010000D02*
D03*
X1070000Y557500D02*
D03*
X1010000D02*
D03*
X1070000Y530000D02*
D03*
X1010000D02*
D03*
X1015500Y430000D02*
D03*
X1075500D02*
D03*
X1016000Y453500D02*
D03*
X1076000D02*
D03*
X626000D02*
D03*
X686000D02*
D03*
X625500Y430000D02*
D03*
X685500D02*
D03*
X683000Y530000D02*
D03*
X623000D02*
D03*
X683000Y557500D02*
D03*
X623000D02*
D03*
X683000Y581500D02*
D03*
X623000D02*
D03*
X683500Y605000D02*
D03*
X623500D02*
D03*
X785000Y489500D02*
D03*
X725000D02*
D03*
X784500Y466000D02*
D03*
X724500D02*
D03*
X784500Y442000D02*
D03*
X724500D02*
D03*
X784500Y414500D02*
D03*
X724500D02*
D03*
X532000Y414000D02*
D03*
X592000D02*
D03*
X532000Y441500D02*
D03*
X592000D02*
D03*
X532000Y465500D02*
D03*
X592000D02*
D03*
X428000Y604500D02*
D03*
X488000D02*
D03*
X427500Y581000D02*
D03*
X487500D02*
D03*
X427500Y557000D02*
D03*
X487500D02*
D03*
X427500Y529500D02*
D03*
X487500D02*
D03*
X493000Y429500D02*
D03*
X433000D02*
D03*
X493500Y453000D02*
D03*
X433500D02*
D03*
D40*
X278740Y590551D02*
D03*
Y570866D02*
D03*
X278728Y698000D02*
D03*
Y678315D02*
D03*
X953866Y150591D02*
D03*
X973551D02*
D03*
X1052291D02*
D03*
X1071976D02*
D03*
X1150716D02*
D03*
X1170401D02*
D03*
X1249142D02*
D03*
X1268827D02*
D03*
X1347567D02*
D03*
X1367252D02*
D03*
X875126D02*
D03*
X855441D02*
D03*
X776701D02*
D03*
X757016D02*
D03*
X678275D02*
D03*
X658591D02*
D03*
X579850D02*
D03*
X560165D02*
D03*
X482283D02*
D03*
X462598D02*
D03*
D41*
X278740Y610236D02*
D03*
D42*
X291000Y297716D02*
D03*
X304000Y333717D02*
D03*
X317000Y375217D02*
D03*
X337000Y386216D02*
D03*
D43*
X291000Y262283D02*
D03*
X304000Y298284D02*
D03*
X317000Y339784D02*
D03*
X337000Y350783D02*
D03*
X345216Y399000D02*
D03*
X344717Y419500D02*
D03*
X344500Y439500D02*
D03*
X344216Y460000D02*
D03*
X343717Y496500D02*
D03*
Y518000D02*
D03*
D44*
X309784Y399000D02*
D03*
X309283Y419500D02*
D03*
X309067Y439500D02*
D03*
X308784Y460000D02*
D03*
X308283Y496500D02*
D03*
Y518000D02*
D03*
D45*
X964067Y667476D02*
D03*
X865642Y706847D02*
D03*
X767216Y667476D02*
D03*
X668791Y706847D02*
D03*
X570366Y667476D02*
D03*
X471941Y706847D02*
D03*
X373516Y667476D02*
D03*
D46*
X983752D02*
D03*
X885327Y706847D02*
D03*
X786902Y667476D02*
D03*
X688476Y706847D02*
D03*
X590051Y667476D02*
D03*
X491626Y706847D02*
D03*
X393201Y667476D02*
D03*
D47*
X1023122Y668480D02*
D03*
Y721591D02*
D03*
X924697Y668480D02*
D03*
Y721591D02*
D03*
X530996Y668480D02*
D03*
Y721591D02*
D03*
X629421Y668480D02*
D03*
Y721591D02*
D03*
X826272Y668480D02*
D03*
Y721591D02*
D03*
X727846Y668480D02*
D03*
Y721591D02*
D03*
X432571Y668480D02*
D03*
Y721591D02*
D03*
X334146Y668480D02*
D03*
Y721591D02*
D03*
D48*
X550500Y801000D02*
D03*
X278000D02*
D03*
D49*
X278728Y717685D02*
D03*
D50*
X281534Y412000D02*
D03*
D51*
X357331Y291590D02*
D03*
Y350646D02*
D03*
Y468756D02*
D03*
Y409701D02*
D03*
Y527811D02*
D03*
D52*
X934181Y150591D02*
D03*
X1032606D02*
D03*
X1131032D02*
D03*
X1229457D02*
D03*
X1327882D02*
D03*
X835756D02*
D03*
X737331D02*
D03*
X638905D02*
D03*
X540480D02*
D03*
X442913D02*
D03*
D53*
X479500Y257000D02*
D03*
X517000Y291000D02*
D03*
X709500Y291500D02*
D03*
X672000Y257500D02*
D03*
X1062000D02*
D03*
X1099500Y291500D02*
D03*
X904500Y291000D02*
D03*
X867000Y257000D02*
D03*
X1297500Y293500D02*
D03*
X1260000Y259500D02*
D03*
X1253000Y485000D02*
D03*
X860000Y482500D02*
D03*
X897500Y516500D02*
D03*
X1092500Y517000D02*
D03*
X1055000Y483000D02*
D03*
X665000D02*
D03*
X702500Y517000D02*
D03*
X510000Y516500D02*
D03*
X472500Y482500D02*
D03*
D54*
X489500Y257000D02*
D03*
X499500D02*
D03*
X527000Y291000D02*
D03*
X537000D02*
D03*
X729500Y291500D02*
D03*
X719500D02*
D03*
X692000Y257500D02*
D03*
X682000D02*
D03*
X1082000D02*
D03*
X1072000D02*
D03*
X1119500Y291500D02*
D03*
X1109500D02*
D03*
X924500Y291000D02*
D03*
X914500D02*
D03*
X887000Y257000D02*
D03*
X877000D02*
D03*
X1307500Y293500D02*
D03*
X1317500D02*
D03*
X1270000Y259500D02*
D03*
X1280000D02*
D03*
X1273000Y485000D02*
D03*
X1263000D02*
D03*
X1310500Y519000D02*
D03*
X1300500D02*
D03*
X870000Y482500D02*
D03*
X880000D02*
D03*
X907500Y516500D02*
D03*
X917500D02*
D03*
X1102500Y517000D02*
D03*
X1112500D02*
D03*
X1065000Y483000D02*
D03*
X1075000D02*
D03*
X675000D02*
D03*
X685000D02*
D03*
X712500Y517000D02*
D03*
X722500D02*
D03*
X530000Y516500D02*
D03*
X520000D02*
D03*
X492500Y482500D02*
D03*
X482500D02*
D03*
D55*
X1290500Y519000D02*
D03*
D56*
X1238160Y272107D02*
D03*
X1037500Y272000D02*
D03*
X841000Y271000D02*
D03*
X1273500Y416500D02*
D03*
X1075500Y414500D02*
D03*
X880500Y414000D02*
D03*
X515000Y318500D02*
D03*
X450500Y318000D02*
D03*
X1280500Y191000D02*
D03*
X1082500Y189000D02*
D03*
X887500D02*
D03*
X692500D02*
D03*
X500000D02*
D03*
X1344000Y611000D02*
D03*
Y373000D02*
D03*
M02*
